<?xml version="1.0" encoding="UTF-8" standalone="no"?>
<svg
   xmlns:dc="http://purl.org/dc/elements/1.1/"
   xmlns:cc="http://creativecommons.org/ns#"
   xmlns:rdf="http://www.w3.org/1999/02/22-rdf-syntax-ns#"
   xmlns:svg="http://www.w3.org/2000/svg"
   xmlns="http://www.w3.org/2000/svg"
   xmlns:sodipodi="http://sodipodi.sourceforge.net/DTD/sodipodi-0.dtd"
   xmlns:inkscape="http://www.inkscape.org/namespaces/inkscape"
   version="1.1"
   id="svg5680"
   xml:space="preserve"
   width="690"
   height="449"
   viewBox="0 0 690 449"
   sodipodi:docname="Sin_discreto1_pouco.svg"
   inkscape:version="1.0.1 (3bc2e813f5, 2020-09-07)"><metadata
     id="metadata5686"><rdf:RDF><cc:Work
         rdf:about=""><dc:format>image/svg+xml</dc:format><dc:type
           rdf:resource="http://purl.org/dc/dcmitype/StillImage" /><dc:title></dc:title></cc:Work></rdf:RDF></metadata><defs
     id="defs5684"><clipPath
       clipPathUnits="userSpaceOnUse"
       id="clipPath5698"><path
         d="M 0,0 H 816 V 1056 H 0 Z"
         id="path5696" /></clipPath><clipPath
       clipPathUnits="userSpaceOnUse"
       id="clipPath6352"><path
         d="M 0,0 H 397.97812 V 515.03051 H 0 Z"
         id="path6350" /></clipPath><mask
       maskUnits="userSpaceOnUse"
       x="0"
       y="0"
       width="1"
       height="1"
       id="mask6354"><g
         id="g6364"><g
           clip-path="url(#clipPath6352)"
           id="g6362"><g
             id="g6360"><g
               id="g6358"><path
                 d="M 44.845313,7.2 H 379.64531 V 224.64 H 44.845313 Z"
                 style="fill:#ffffff;fill-opacity:1;fill-rule:nonzero;stroke:none"
                 id="path6356" /></g></g></g></g></mask><clipPath
       clipPathUnits="userSpaceOnUse"
       id="clipPath6376"><path
         d="M 0,0 H 397.97812 V 515.03051 H 0 Z"
         id="path6374" /></clipPath><mask
       maskUnits="userSpaceOnUse"
       x="0"
       y="0"
       width="1"
       height="1"
       id="mask6378"><g
         id="g6388"><g
           clip-path="url(#clipPath6376)"
           id="g6386"><g
             id="g6384"><g
               id="g6382"><path
                 d="M 44.845313,7.2 H 379.64531 V 224.64 H 44.845313 Z"
                 style="fill:#ffffff;fill-opacity:1;fill-rule:nonzero;stroke:none"
                 id="path6380" /></g></g></g></g></mask><clipPath
       clipPathUnits="userSpaceOnUse"
       id="clipPath6396"><path
         d="M 0,0 H 397.97812 V 515.03051 H 0 Z"
         id="path6394" /></clipPath></defs><sodipodi:namedview
     pagecolor="#ffffff"
     bordercolor="#666666"
     borderopacity="1"
     objecttolerance="10"
     gridtolerance="10"
     guidetolerance="10"
     inkscape:pageopacity="0"
     inkscape:pageshadow="2"
     inkscape:window-width="1920"
     inkscape:window-height="1017"
     id="namedview5682"
     showgrid="false"
     inkscape:zoom="0.80492424"
     inkscape:cx="408"
     inkscape:cy="279.52941"
     inkscape:window-x="-8"
     inkscape:window-y="-8"
     inkscape:window-maximized="1"
     inkscape:current-layer="g5688" /><g
     id="g5688"
     inkscape:groupmode="layer"
     inkscape:label="teste3"
     transform="matrix(1.3333333,0,0,1.3333333,0,2.64e-5)"><g
       id="g5690"
       transform="matrix(0.75,0,0,0.75,-67.087061,-9.3176473)"><g
         id="g5692"><g
           id="g5694"
           clip-path="url(#clipPath5698)"><g
             id="g5700"
             transform="scale(2.050364)"><g
               id="g5702"><g
                 id="g5704"><g
                   id="g5706" /></g><g
                 id="g5708"><g
                   id="g5710"><g
                     id="g5712"><path
                       d="M 44.845313,224.64 H 379.64531 V 7.2 H 44.845313 Z"
                       style="fill:#ffffff;fill-opacity:1;fill-rule:nonzero;stroke:none"
                       id="path5714" /></g></g><g
                   id="g5716"><g
                     id="g5718"><g
                       id="g5720"><g
                         id="g5722"><g
                           id="g5724"
                           transform="translate(44.845313,224.64)"><g
                             id="g5726"><path
                               d="M 0,0 V 3.5"
                               style="fill:#000000;fill-opacity:1;fill-rule:nonzero;stroke:#000000;stroke-width:0.8;stroke-linecap:butt;stroke-linejoin:round;stroke-miterlimit:4;stroke-dasharray:none;stroke-opacity:1"
                               id="path5728" /></g></g></g></g><g
                       id="g5730"><g
                         id="g5732"
                         transform="matrix(0.1,0,0,-0.1,33.7125,239.23844)"><g
                           id="g5734"><g
                             id="g5736"><path
                               d="m 31.78125,66.40625 c -5.072917,0 -8.890625,-2.5 -11.453125,-7.5 C 17.776042,53.916667 16.5,46.40625 16.5,36.375 c 0,-9.989583 1.276042,-17.484375 3.828125,-22.484375 2.5625,-5 6.380208,-7.5 11.453125,-7.5 5.114583,0 8.947917,2.5 11.5,7.5 2.5625,5 3.84375,12.494792 3.84375,22.484375 0,10.03125 -1.28125,17.541667 -3.84375,22.53125 -2.552083,5 -6.385417,7.5 -11.5,7.5 z m 0,7.8125 c 8.177083,0 14.421875,-3.234375 18.734375,-9.703125 4.3125,-6.458333 6.46875,-15.838542 6.46875,-28.140625 0,-12.270833 -2.15625,-21.640625 -6.46875,-28.109375 -4.3125,-6.458333 -10.557292,-9.6875 -18.734375,-9.6875 -8.166667,0 -14.40625,3.229167 -18.71875,9.6875 C 8.75,14.734375 6.59375,24.104167 6.59375,36.375 c 0,12.302083 2.15625,21.682292 6.46875,28.140625 4.3125,6.46875 10.552083,9.703125 18.71875,9.703125 z"
                               style="fill:#000000;fill-opacity:1;fill-rule:nonzero;stroke:none"
                               id="path5738" /></g></g><g
                           id="g5740"
                           transform="translate(63.623047)"><g
                             id="g5742"><path
                               d="M 10.6875,12.40625 H 21 V 0 H 10.6875 Z"
                               style="fill:#000000;fill-opacity:1;fill-rule:nonzero;stroke:none"
                               id="path5744" /></g></g><g
                           id="g5746"
                           transform="translate(95.410156)"><g
                             id="g5748"><path
                               d="m 31.78125,66.40625 c -5.072917,0 -8.890625,-2.5 -11.453125,-7.5 C 17.776042,53.916667 16.5,46.40625 16.5,36.375 c 0,-9.989583 1.276042,-17.484375 3.828125,-22.484375 2.5625,-5 6.380208,-7.5 11.453125,-7.5 5.114583,0 8.947917,2.5 11.5,7.5 2.5625,5 3.84375,12.494792 3.84375,22.484375 0,10.03125 -1.28125,17.541667 -3.84375,22.53125 -2.552083,5 -6.385417,7.5 -11.5,7.5 z m 0,7.8125 c 8.177083,0 14.421875,-3.234375 18.734375,-9.703125 4.3125,-6.458333 6.46875,-15.838542 6.46875,-28.140625 0,-12.270833 -2.15625,-21.640625 -6.46875,-28.109375 -4.3125,-6.458333 -10.557292,-9.6875 -18.734375,-9.6875 -8.166667,0 -14.40625,3.229167 -18.71875,9.6875 C 8.75,14.734375 6.59375,24.104167 6.59375,36.375 c 0,12.302083 2.15625,21.682292 6.46875,28.140625 4.3125,6.46875 10.552083,9.703125 18.71875,9.703125 z"
                               style="fill:#000000;fill-opacity:1;fill-rule:nonzero;stroke:none"
                               id="path5750" /></g></g><g
                           id="g5752"
                           transform="translate(159.0332)"><g
                             id="g5754"><path
                               d="m 31.78125,66.40625 c -5.072917,0 -8.890625,-2.5 -11.453125,-7.5 C 17.776042,53.916667 16.5,46.40625 16.5,36.375 c 0,-9.989583 1.276042,-17.484375 3.828125,-22.484375 2.5625,-5 6.380208,-7.5 11.453125,-7.5 5.114583,0 8.947917,2.5 11.5,7.5 2.5625,5 3.84375,12.494792 3.84375,22.484375 0,10.03125 -1.28125,17.541667 -3.84375,22.53125 -2.552083,5 -6.385417,7.5 -11.5,7.5 z m 0,7.8125 c 8.177083,0 14.421875,-3.234375 18.734375,-9.703125 4.3125,-6.458333 6.46875,-15.838542 6.46875,-28.140625 0,-12.270833 -2.15625,-21.640625 -6.46875,-28.109375 -4.3125,-6.458333 -10.557292,-9.6875 -18.734375,-9.6875 -8.166667,0 -14.40625,3.229167 -18.71875,9.6875 C 8.75,14.734375 6.59375,24.104167 6.59375,36.375 c 0,12.302083 2.15625,21.682292 6.46875,28.140625 4.3125,6.46875 10.552083,9.703125 18.71875,9.703125 z"
                               style="fill:#000000;fill-opacity:1;fill-rule:nonzero;stroke:none"
                               id="path5756" /></g></g></g></g></g><g
                     id="g5758"><g
                       id="g5760"><g
                         id="g5762"><g
                           id="g5764"
                           transform="translate(111.80531,224.64)"><g
                             id="g5766"><path
                               d="M 0,0 V 3.5"
                               style="fill:#000000;fill-opacity:1;fill-rule:nonzero;stroke:#000000;stroke-width:0.8;stroke-linecap:butt;stroke-linejoin:round;stroke-miterlimit:4;stroke-dasharray:none;stroke-opacity:1"
                               id="path5768" /></g></g></g></g><g
                       id="g5770"><g
                         id="g5772"
                         transform="matrix(0.1,0,0,-0.1,100.6725,239.23844)"><g
                           id="g5774"><g
                             id="g5776"><path
                               d="m 31.78125,66.40625 c -5.072917,0 -8.890625,-2.5 -11.453125,-7.5 C 17.776042,53.916667 16.5,46.40625 16.5,36.375 c 0,-9.989583 1.276042,-17.484375 3.828125,-22.484375 2.5625,-5 6.380208,-7.5 11.453125,-7.5 5.114583,0 8.947917,2.5 11.5,7.5 2.5625,5 3.84375,12.494792 3.84375,22.484375 0,10.03125 -1.28125,17.541667 -3.84375,22.53125 -2.552083,5 -6.385417,7.5 -11.5,7.5 z m 0,7.8125 c 8.177083,0 14.421875,-3.234375 18.734375,-9.703125 4.3125,-6.458333 6.46875,-15.838542 6.46875,-28.140625 0,-12.270833 -2.15625,-21.640625 -6.46875,-28.109375 -4.3125,-6.458333 -10.557292,-9.6875 -18.734375,-9.6875 -8.166667,0 -14.40625,3.229167 -18.71875,9.6875 C 8.75,14.734375 6.59375,24.104167 6.59375,36.375 c 0,12.302083 2.15625,21.682292 6.46875,28.140625 4.3125,6.46875 10.552083,9.703125 18.71875,9.703125 z"
                               style="fill:#000000;fill-opacity:1;fill-rule:nonzero;stroke:none"
                               id="path5778" /></g></g><g
                           id="g5780"
                           transform="translate(63.623047)"><g
                             id="g5782"><path
                               d="M 10.6875,12.40625 H 21 V 0 H 10.6875 Z"
                               style="fill:#000000;fill-opacity:1;fill-rule:nonzero;stroke:none"
                               id="path5784" /></g></g><g
                           id="g5786"
                           transform="translate(95.410156)"><g
                             id="g5788"><path
                               d="m 31.78125,66.40625 c -5.072917,0 -8.890625,-2.5 -11.453125,-7.5 C 17.776042,53.916667 16.5,46.40625 16.5,36.375 c 0,-9.989583 1.276042,-17.484375 3.828125,-22.484375 2.5625,-5 6.380208,-7.5 11.453125,-7.5 5.114583,0 8.947917,2.5 11.5,7.5 2.5625,5 3.84375,12.494792 3.84375,22.484375 0,10.03125 -1.28125,17.541667 -3.84375,22.53125 -2.552083,5 -6.385417,7.5 -11.5,7.5 z m 0,7.8125 c 8.177083,0 14.421875,-3.234375 18.734375,-9.703125 4.3125,-6.458333 6.46875,-15.838542 6.46875,-28.140625 0,-12.270833 -2.15625,-21.640625 -6.46875,-28.109375 -4.3125,-6.458333 -10.557292,-9.6875 -18.734375,-9.6875 -8.166667,0 -14.40625,3.229167 -18.71875,9.6875 C 8.75,14.734375 6.59375,24.104167 6.59375,36.375 c 0,12.302083 2.15625,21.682292 6.46875,28.140625 4.3125,6.46875 10.552083,9.703125 18.71875,9.703125 z"
                               style="fill:#000000;fill-opacity:1;fill-rule:nonzero;stroke:none"
                               id="path5790" /></g></g><g
                           id="g5792"
                           transform="translate(159.0332)"><g
                             id="g5794"><path
                               d="M 19.1875,8.296875 H 53.609375 V 0 H 7.328125 v 8.296875 c 3.739583,3.875 8.838542,9.072917 15.296875,15.59375 6.46875,6.53125 10.53125,10.744792 12.1875,12.640625 3.15625,3.541667 5.359375,6.541667 6.609375,9 1.260417,2.458333 1.890625,4.875 1.890625,7.25 0,3.875 -1.359375,7.03125 -4.078125,9.46875 -2.71875,2.447917 -6.260417,3.671875 -10.625,3.671875 -3.09375,0 -6.359375,-0.536458 -9.796875,-1.609375 -3.427083,-1.072917 -7.09375,-2.703125 -11,-4.890625 v 9.96875 c 3.96875,1.59375 7.677083,2.796875 11.125,3.609375 3.458333,0.8125 6.619792,1.21875 9.484375,1.21875 7.552083,0 13.572917,-1.890625 18.0625,-5.671875 4.489583,-3.770833 6.734375,-8.8125 6.734375,-15.125 0,-3 -0.5625,-5.84375 -1.6875,-8.53125 -1.114583,-2.677083 -3.15625,-5.838542 -6.125,-9.484375 -0.8125,-0.947917 -3.401042,-3.677083 -7.765625,-8.1875 C 33.286458,22.708333 27.135417,16.401042 19.1875,8.296875 Z"
                               style="fill:#000000;fill-opacity:1;fill-rule:nonzero;stroke:none"
                               id="path5796" /></g></g></g></g></g><g
                     id="g5798"><g
                       id="g5800"><g
                         id="g5802"><g
                           id="g5804"
                           transform="translate(178.76531,224.64)"><g
                             id="g5806"><path
                               d="M 0,0 V 3.5"
                               style="fill:#000000;fill-opacity:1;fill-rule:nonzero;stroke:#000000;stroke-width:0.8;stroke-linecap:butt;stroke-linejoin:round;stroke-miterlimit:4;stroke-dasharray:none;stroke-opacity:1"
                               id="path5808" /></g></g></g></g><g
                       id="g5810"><g
                         id="g5812"
                         transform="matrix(0.1,0,0,-0.1,167.6325,239.23844)"><g
                           id="g5814"><g
                             id="g5816"><path
                               d="m 31.78125,66.40625 c -5.072917,0 -8.890625,-2.5 -11.453125,-7.5 C 17.776042,53.916667 16.5,46.40625 16.5,36.375 c 0,-9.989583 1.276042,-17.484375 3.828125,-22.484375 2.5625,-5 6.380208,-7.5 11.453125,-7.5 5.114583,0 8.947917,2.5 11.5,7.5 2.5625,5 3.84375,12.494792 3.84375,22.484375 0,10.03125 -1.28125,17.541667 -3.84375,22.53125 -2.552083,5 -6.385417,7.5 -11.5,7.5 z m 0,7.8125 c 8.177083,0 14.421875,-3.234375 18.734375,-9.703125 4.3125,-6.458333 6.46875,-15.838542 6.46875,-28.140625 0,-12.270833 -2.15625,-21.640625 -6.46875,-28.109375 -4.3125,-6.458333 -10.557292,-9.6875 -18.734375,-9.6875 -8.166667,0 -14.40625,3.229167 -18.71875,9.6875 C 8.75,14.734375 6.59375,24.104167 6.59375,36.375 c 0,12.302083 2.15625,21.682292 6.46875,28.140625 4.3125,6.46875 10.552083,9.703125 18.71875,9.703125 z"
                               style="fill:#000000;fill-opacity:1;fill-rule:nonzero;stroke:none"
                               id="path5818" /></g></g><g
                           id="g5820"
                           transform="translate(63.623047)"><g
                             id="g5822"><path
                               d="M 10.6875,12.40625 H 21 V 0 H 10.6875 Z"
                               style="fill:#000000;fill-opacity:1;fill-rule:nonzero;stroke:none"
                               id="path5824" /></g></g><g
                           id="g5826"
                           transform="translate(95.410156)"><g
                             id="g5828"><path
                               d="m 31.78125,66.40625 c -5.072917,0 -8.890625,-2.5 -11.453125,-7.5 C 17.776042,53.916667 16.5,46.40625 16.5,36.375 c 0,-9.989583 1.276042,-17.484375 3.828125,-22.484375 2.5625,-5 6.380208,-7.5 11.453125,-7.5 5.114583,0 8.947917,2.5 11.5,7.5 2.5625,5 3.84375,12.494792 3.84375,22.484375 0,10.03125 -1.28125,17.541667 -3.84375,22.53125 -2.552083,5 -6.385417,7.5 -11.5,7.5 z m 0,7.8125 c 8.177083,0 14.421875,-3.234375 18.734375,-9.703125 4.3125,-6.458333 6.46875,-15.838542 6.46875,-28.140625 0,-12.270833 -2.15625,-21.640625 -6.46875,-28.109375 -4.3125,-6.458333 -10.557292,-9.6875 -18.734375,-9.6875 -8.166667,0 -14.40625,3.229167 -18.71875,9.6875 C 8.75,14.734375 6.59375,24.104167 6.59375,36.375 c 0,12.302083 2.15625,21.682292 6.46875,28.140625 4.3125,6.46875 10.552083,9.703125 18.71875,9.703125 z"
                               style="fill:#000000;fill-opacity:1;fill-rule:nonzero;stroke:none"
                               id="path5830" /></g></g><g
                           id="g5832"
                           transform="translate(159.0332)"><g
                             id="g5834"><path
                               d="M 37.796875,64.3125 12.890625,25.390625 h 24.90625 z m -2.59375,8.59375 h 12.40625 V 25.390625 h 10.40625 V 17.1875 H 47.609375 V 0 h -9.8125 V 17.1875 H 4.890625 v 9.515625 z"
                               style="fill:#000000;fill-opacity:1;fill-rule:nonzero;stroke:none"
                               id="path5836" /></g></g></g></g></g><g
                     id="g5838"><g
                       id="g5840"><g
                         id="g5842"><g
                           id="g5844"
                           transform="translate(245.72531,224.64)"><g
                             id="g5846"><path
                               d="M 0,0 V 3.5"
                               style="fill:#000000;fill-opacity:1;fill-rule:nonzero;stroke:#000000;stroke-width:0.8;stroke-linecap:butt;stroke-linejoin:round;stroke-miterlimit:4;stroke-dasharray:none;stroke-opacity:1"
                               id="path5848" /></g></g></g></g><g
                       id="g5850"><g
                         id="g5852"
                         transform="matrix(0.1,0,0,-0.1,234.5925,239.23844)"><g
                           id="g5854"><g
                             id="g5856"><path
                               d="m 31.78125,66.40625 c -5.072917,0 -8.890625,-2.5 -11.453125,-7.5 C 17.776042,53.916667 16.5,46.40625 16.5,36.375 c 0,-9.989583 1.276042,-17.484375 3.828125,-22.484375 2.5625,-5 6.380208,-7.5 11.453125,-7.5 5.114583,0 8.947917,2.5 11.5,7.5 2.5625,5 3.84375,12.494792 3.84375,22.484375 0,10.03125 -1.28125,17.541667 -3.84375,22.53125 -2.552083,5 -6.385417,7.5 -11.5,7.5 z m 0,7.8125 c 8.177083,0 14.421875,-3.234375 18.734375,-9.703125 4.3125,-6.458333 6.46875,-15.838542 6.46875,-28.140625 0,-12.270833 -2.15625,-21.640625 -6.46875,-28.109375 -4.3125,-6.458333 -10.557292,-9.6875 -18.734375,-9.6875 -8.166667,0 -14.40625,3.229167 -18.71875,9.6875 C 8.75,14.734375 6.59375,24.104167 6.59375,36.375 c 0,12.302083 2.15625,21.682292 6.46875,28.140625 4.3125,6.46875 10.552083,9.703125 18.71875,9.703125 z"
                               style="fill:#000000;fill-opacity:1;fill-rule:nonzero;stroke:none"
                               id="path5858" /></g></g><g
                           id="g5860"
                           transform="translate(63.623047)"><g
                             id="g5862"><path
                               d="M 10.6875,12.40625 H 21 V 0 H 10.6875 Z"
                               style="fill:#000000;fill-opacity:1;fill-rule:nonzero;stroke:none"
                               id="path5864" /></g></g><g
                           id="g5866"
                           transform="translate(95.410156)"><g
                             id="g5868"><path
                               d="m 31.78125,66.40625 c -5.072917,0 -8.890625,-2.5 -11.453125,-7.5 C 17.776042,53.916667 16.5,46.40625 16.5,36.375 c 0,-9.989583 1.276042,-17.484375 3.828125,-22.484375 2.5625,-5 6.380208,-7.5 11.453125,-7.5 5.114583,0 8.947917,2.5 11.5,7.5 2.5625,5 3.84375,12.494792 3.84375,22.484375 0,10.03125 -1.28125,17.541667 -3.84375,22.53125 -2.552083,5 -6.385417,7.5 -11.5,7.5 z m 0,7.8125 c 8.177083,0 14.421875,-3.234375 18.734375,-9.703125 4.3125,-6.458333 6.46875,-15.838542 6.46875,-28.140625 0,-12.270833 -2.15625,-21.640625 -6.46875,-28.109375 -4.3125,-6.458333 -10.557292,-9.6875 -18.734375,-9.6875 -8.166667,0 -14.40625,3.229167 -18.71875,9.6875 C 8.75,14.734375 6.59375,24.104167 6.59375,36.375 c 0,12.302083 2.15625,21.682292 6.46875,28.140625 4.3125,6.46875 10.552083,9.703125 18.71875,9.703125 z"
                               style="fill:#000000;fill-opacity:1;fill-rule:nonzero;stroke:none"
                               id="path5870" /></g></g><g
                           id="g5872"
                           transform="translate(159.0332)"><g
                             id="g5874"><path
                               d="m 33.015625,40.375 c -4.427083,0 -7.9375,-1.515625 -10.53125,-4.546875 -2.583333,-3.020833 -3.875,-7.166667 -3.875,-12.4375 0,-5.239583 1.291667,-9.385417 3.875,-12.4375 2.59375,-3.041667 6.104167,-4.5625 10.53125,-4.5625 4.427083,0 7.932292,1.520833 10.515625,4.5625 2.583333,3.052083 3.875,7.197917 3.875,12.4375 0,5.270833 -1.291667,9.416667 -3.875,12.4375 C 40.947917,38.859375 37.442708,40.375 33.015625,40.375 Z M 52.59375,71.296875 V 62.3125 c -2.479167,1.166667 -4.979167,2.057292 -7.5,2.671875 -2.520833,0.625 -5.020833,0.9375 -7.5,0.9375 -6.510417,0 -11.484375,-2.197917 -14.921875,-6.59375 -3.427083,-4.395833 -5.385417,-11.036458 -5.875,-19.921875 1.916667,2.833333 4.322917,5.005208 7.21875,6.515625 2.90625,1.510417 6.098958,2.265625 9.578125,2.265625 7.322917,0 13.109375,-2.223958 17.359375,-6.671875 4.25,-4.4375 6.375,-10.479167 6.375,-18.125 0,-7.489583 -2.213542,-13.5 -6.640625,-18.03125 -4.427083,-4.520833 -10.317708,-6.78125 -17.671875,-6.78125 -8.4375,0 -14.885417,3.229167 -19.34375,9.6875 -4.458333,6.46875 -6.6875,15.838542 -6.6875,28.109375 0,11.520833 2.734375,20.708333 8.203125,27.5625 5.46875,6.854167 12.807292,10.28125 22.015625,10.28125 2.479167,0 4.979167,-0.244792 7.5,-0.734375 2.520833,-0.489583 5.151042,-1.21875 7.890625,-2.1875 z"
                               style="fill:#000000;fill-opacity:1;fill-rule:nonzero;stroke:none"
                               id="path5876" /></g></g></g></g></g><g
                     id="g5878"><g
                       id="g5880"><g
                         id="g5882"><g
                           id="g5884"
                           transform="translate(312.68531,224.64)"><g
                             id="g5886"><path
                               d="M 0,0 V 3.5"
                               style="fill:#000000;fill-opacity:1;fill-rule:nonzero;stroke:#000000;stroke-width:0.8;stroke-linecap:butt;stroke-linejoin:round;stroke-miterlimit:4;stroke-dasharray:none;stroke-opacity:1"
                               id="path5888" /></g></g></g></g><g
                       id="g5890"><g
                         id="g5892"
                         transform="matrix(0.1,0,0,-0.1,301.5525,239.23844)"><g
                           id="g5894"><g
                             id="g5896"><path
                               d="m 31.78125,66.40625 c -5.072917,0 -8.890625,-2.5 -11.453125,-7.5 C 17.776042,53.916667 16.5,46.40625 16.5,36.375 c 0,-9.989583 1.276042,-17.484375 3.828125,-22.484375 2.5625,-5 6.380208,-7.5 11.453125,-7.5 5.114583,0 8.947917,2.5 11.5,7.5 2.5625,5 3.84375,12.494792 3.84375,22.484375 0,10.03125 -1.28125,17.541667 -3.84375,22.53125 -2.552083,5 -6.385417,7.5 -11.5,7.5 z m 0,7.8125 c 8.177083,0 14.421875,-3.234375 18.734375,-9.703125 4.3125,-6.458333 6.46875,-15.838542 6.46875,-28.140625 0,-12.270833 -2.15625,-21.640625 -6.46875,-28.109375 -4.3125,-6.458333 -10.557292,-9.6875 -18.734375,-9.6875 -8.166667,0 -14.40625,3.229167 -18.71875,9.6875 C 8.75,14.734375 6.59375,24.104167 6.59375,36.375 c 0,12.302083 2.15625,21.682292 6.46875,28.140625 4.3125,6.46875 10.552083,9.703125 18.71875,9.703125 z"
                               style="fill:#000000;fill-opacity:1;fill-rule:nonzero;stroke:none"
                               id="path5898" /></g></g><g
                           id="g5900"
                           transform="translate(63.623047)"><g
                             id="g5902"><path
                               d="M 10.6875,12.40625 H 21 V 0 H 10.6875 Z"
                               style="fill:#000000;fill-opacity:1;fill-rule:nonzero;stroke:none"
                               id="path5904" /></g></g><g
                           id="g5906"
                           transform="translate(95.410156)"><g
                             id="g5908"><path
                               d="m 31.78125,66.40625 c -5.072917,0 -8.890625,-2.5 -11.453125,-7.5 C 17.776042,53.916667 16.5,46.40625 16.5,36.375 c 0,-9.989583 1.276042,-17.484375 3.828125,-22.484375 2.5625,-5 6.380208,-7.5 11.453125,-7.5 5.114583,0 8.947917,2.5 11.5,7.5 2.5625,5 3.84375,12.494792 3.84375,22.484375 0,10.03125 -1.28125,17.541667 -3.84375,22.53125 -2.552083,5 -6.385417,7.5 -11.5,7.5 z m 0,7.8125 c 8.177083,0 14.421875,-3.234375 18.734375,-9.703125 4.3125,-6.458333 6.46875,-15.838542 6.46875,-28.140625 0,-12.270833 -2.15625,-21.640625 -6.46875,-28.109375 -4.3125,-6.458333 -10.557292,-9.6875 -18.734375,-9.6875 -8.166667,0 -14.40625,3.229167 -18.71875,9.6875 C 8.75,14.734375 6.59375,24.104167 6.59375,36.375 c 0,12.302083 2.15625,21.682292 6.46875,28.140625 4.3125,6.46875 10.552083,9.703125 18.71875,9.703125 z"
                               style="fill:#000000;fill-opacity:1;fill-rule:nonzero;stroke:none"
                               id="path5910" /></g></g><g
                           id="g5912"
                           transform="translate(159.0332)"><g
                             id="g5914"><path
                               d="m 31.78125,34.625 c -4.6875,0 -8.375,-1.255208 -11.0625,-3.765625 -2.677083,-2.510417 -4.015625,-5.958333 -4.015625,-10.34375 0,-4.395833 1.338542,-7.848958 4.015625,-10.359375 2.6875,-2.510417 6.375,-3.765625 11.0625,-3.765625 4.6875,0 8.380208,1.260417 11.078125,3.78125 2.708333,2.53125 4.0625,5.979167 4.0625,10.34375 0,4.385417 -1.34375,7.833333 -4.03125,10.34375 C 40.213542,33.369792 36.510417,34.625 31.78125,34.625 Z m -9.859375,4.1875 C 17.692708,39.854167 14.395833,41.822917 12.03125,44.71875 9.677083,47.625 8.5,51.161458 8.5,55.328125 c 0,5.822917 2.072917,10.427083 6.21875,13.8125 4.15625,3.385417 9.84375,5.078125 17.0625,5.078125 7.260417,0 12.958333,-1.692708 17.09375,-5.078125 4.135417,-3.385417 6.203125,-7.989583 6.203125,-13.8125 0,-4.166667 -1.182292,-7.703125 -3.546875,-10.609375 -2.354167,-2.895833 -5.630208,-4.864583 -9.828125,-5.90625 4.75,-1.104167 8.447917,-3.270833 11.09375,-6.5 2.65625,-3.21875 3.984375,-7.151042 3.984375,-11.796875 0,-7.072917 -2.15625,-12.5 -6.46875,-16.28125 C 46,0.463542 39.822917,-1.421875 31.78125,-1.421875 c -8.03125,0 -14.208333,1.885417 -18.53125,5.65625 -4.3125,3.78125 -6.46875,9.208333 -6.46875,16.28125 0,4.645833 1.333333,8.578125 4,11.796875 2.677083,3.229167 6.390625,5.395833 11.140625,6.5 z M 18.3125,54.390625 c 0,-3.770833 1.177083,-6.713542 3.53125,-8.828125 2.364583,-2.114583 5.677083,-3.171875 9.9375,-3.171875 4.239583,0 7.552083,1.057292 9.9375,3.171875 2.395833,2.114583 3.59375,5.057292 3.59375,8.828125 0,3.78125 -1.197917,6.729167 -3.59375,8.84375 -2.385417,2.114583 -5.697917,3.171875 -9.9375,3.171875 -4.260417,0 -7.572917,-1.057292 -9.9375,-3.171875 -2.354167,-2.114583 -3.53125,-5.0625 -3.53125,-8.84375 z"
                               style="fill:#000000;fill-opacity:1;fill-rule:nonzero;stroke:none"
                               id="path5916" /></g></g></g></g></g><g
                     id="g5918"><g
                       id="g5920"><g
                         id="g5922"><g
                           id="g5924"
                           transform="translate(379.64531,224.64)"><g
                             id="g5926"><path
                               d="M 0,0 V 3.5"
                               style="fill:#000000;fill-opacity:1;fill-rule:nonzero;stroke:#000000;stroke-width:0.8;stroke-linecap:butt;stroke-linejoin:round;stroke-miterlimit:4;stroke-dasharray:none;stroke-opacity:1"
                               id="path5928" /></g></g></g></g><g
                       id="g5930"><g
                         id="g5932"
                         transform="matrix(0.1,0,0,-0.1,368.5125,239.23844)"><g
                           id="g5934"><g
                             id="g5936"><path
                               d="m 31.78125,66.40625 c -5.072917,0 -8.890625,-2.5 -11.453125,-7.5 C 17.776042,53.916667 16.5,46.40625 16.5,36.375 c 0,-9.989583 1.276042,-17.484375 3.828125,-22.484375 2.5625,-5 6.380208,-7.5 11.453125,-7.5 5.114583,0 8.947917,2.5 11.5,7.5 2.5625,5 3.84375,12.494792 3.84375,22.484375 0,10.03125 -1.28125,17.541667 -3.84375,22.53125 -2.552083,5 -6.385417,7.5 -11.5,7.5 z m 0,7.8125 c 8.177083,0 14.421875,-3.234375 18.734375,-9.703125 4.3125,-6.458333 6.46875,-15.838542 6.46875,-28.140625 0,-12.270833 -2.15625,-21.640625 -6.46875,-28.109375 -4.3125,-6.458333 -10.557292,-9.6875 -18.734375,-9.6875 -8.166667,0 -14.40625,3.229167 -18.71875,9.6875 C 8.75,14.734375 6.59375,24.104167 6.59375,36.375 c 0,12.302083 2.15625,21.682292 6.46875,28.140625 4.3125,6.46875 10.552083,9.703125 18.71875,9.703125 z"
                               style="fill:#000000;fill-opacity:1;fill-rule:nonzero;stroke:none"
                               id="path5938" /></g></g><g
                           id="g5940"
                           transform="translate(63.623047)"><g
                             id="g5942"><path
                               d="M 10.6875,12.40625 H 21 V 0 H 10.6875 Z"
                               style="fill:#000000;fill-opacity:1;fill-rule:nonzero;stroke:none"
                               id="path5944" /></g></g><g
                           id="g5946"
                           transform="translate(95.410156)"><g
                             id="g5948"><path
                               d="m 12.40625,8.296875 h 16.109375 v 55.625 L 10.984375,60.40625 v 8.984375 l 17.4375,3.515625 H 38.28125 V 8.296875 H 54.390625 V 0 H 12.40625 Z"
                               style="fill:#000000;fill-opacity:1;fill-rule:nonzero;stroke:none"
                               id="path5950" /></g></g><g
                           id="g5952"
                           transform="translate(159.0332)"><g
                             id="g5954"><path
                               d="m 31.78125,66.40625 c -5.072917,0 -8.890625,-2.5 -11.453125,-7.5 C 17.776042,53.916667 16.5,46.40625 16.5,36.375 c 0,-9.989583 1.276042,-17.484375 3.828125,-22.484375 2.5625,-5 6.380208,-7.5 11.453125,-7.5 5.114583,0 8.947917,2.5 11.5,7.5 2.5625,5 3.84375,12.494792 3.84375,22.484375 0,10.03125 -1.28125,17.541667 -3.84375,22.53125 -2.552083,5 -6.385417,7.5 -11.5,7.5 z m 0,7.8125 c 8.177083,0 14.421875,-3.234375 18.734375,-9.703125 4.3125,-6.458333 6.46875,-15.838542 6.46875,-28.140625 0,-12.270833 -2.15625,-21.640625 -6.46875,-28.109375 -4.3125,-6.458333 -10.557292,-9.6875 -18.734375,-9.6875 -8.166667,0 -14.40625,3.229167 -18.71875,9.6875 C 8.75,14.734375 6.59375,24.104167 6.59375,36.375 c 0,12.302083 2.15625,21.682292 6.46875,28.140625 4.3125,6.46875 10.552083,9.703125 18.71875,9.703125 z"
                               style="fill:#000000;fill-opacity:1;fill-rule:nonzero;stroke:none"
                               id="path5956" /></g></g></g></g></g></g><g
                   id="g5958"><g
                     id="g5960"><g
                       id="g5962"><g
                         id="g5964"><g
                           id="g5966"
                           transform="translate(44.845313,215.0951)"><g
                             id="g5968"><path
                               d="M 0,0 H -3.5"
                               style="fill:#000000;fill-opacity:1;fill-rule:nonzero;stroke:#000000;stroke-width:0.8;stroke-linecap:butt;stroke-linejoin:round;stroke-miterlimit:4;stroke-dasharray:none;stroke-opacity:1"
                               id="path5970" /></g></g></g></g><g
                       id="g5972"><g
                         id="g5974"
                         transform="matrix(0.1,0,0,-0.1,7.2,218.89432)"><g
                           id="g5976"><g
                             id="g5978"><path
                               d="M 10.59375,35.5 H 73.1875 V 27.203125 H 10.59375 Z"
                               style="fill:#000000;fill-opacity:1;fill-rule:nonzero;stroke:none"
                               id="path5980" /></g></g><g
                           id="g5982"
                           transform="translate(83.789062)"><g
                             id="g5984"><path
                               d="m 12.40625,8.296875 h 16.109375 v 55.625 L 10.984375,60.40625 v 8.984375 l 17.4375,3.515625 H 38.28125 V 8.296875 H 54.390625 V 0 H 12.40625 Z"
                               style="fill:#000000;fill-opacity:1;fill-rule:nonzero;stroke:none"
                               id="path5986" /></g></g><g
                           id="g5988"
                           transform="translate(147.41211)"><g
                             id="g5990"><path
                               d="M 10.6875,12.40625 H 21 V 0 H 10.6875 Z"
                               style="fill:#000000;fill-opacity:1;fill-rule:nonzero;stroke:none"
                               id="path5992" /></g></g><g
                           id="g5994"
                           transform="translate(179.19922)"><g
                             id="g5996"><path
                               d="m 31.78125,66.40625 c -5.072917,0 -8.890625,-2.5 -11.453125,-7.5 C 17.776042,53.916667 16.5,46.40625 16.5,36.375 c 0,-9.989583 1.276042,-17.484375 3.828125,-22.484375 2.5625,-5 6.380208,-7.5 11.453125,-7.5 5.114583,0 8.947917,2.5 11.5,7.5 2.5625,5 3.84375,12.494792 3.84375,22.484375 0,10.03125 -1.28125,17.541667 -3.84375,22.53125 -2.552083,5 -6.385417,7.5 -11.5,7.5 z m 0,7.8125 c 8.177083,0 14.421875,-3.234375 18.734375,-9.703125 4.3125,-6.458333 6.46875,-15.838542 6.46875,-28.140625 0,-12.270833 -2.15625,-21.640625 -6.46875,-28.109375 -4.3125,-6.458333 -10.557292,-9.6875 -18.734375,-9.6875 -8.166667,0 -14.40625,3.229167 -18.71875,9.6875 C 8.75,14.734375 6.59375,24.104167 6.59375,36.375 c 0,12.302083 2.15625,21.682292 6.46875,28.140625 4.3125,6.46875 10.552083,9.703125 18.71875,9.703125 z"
                               style="fill:#000000;fill-opacity:1;fill-rule:nonzero;stroke:none"
                               id="path5998" /></g></g><g
                           id="g6000"
                           transform="translate(242.82227)"><g
                             id="g6002"><path
                               d="m 31.78125,66.40625 c -5.072917,0 -8.890625,-2.5 -11.453125,-7.5 C 17.776042,53.916667 16.5,46.40625 16.5,36.375 c 0,-9.989583 1.276042,-17.484375 3.828125,-22.484375 2.5625,-5 6.380208,-7.5 11.453125,-7.5 5.114583,0 8.947917,2.5 11.5,7.5 2.5625,5 3.84375,12.494792 3.84375,22.484375 0,10.03125 -1.28125,17.541667 -3.84375,22.53125 -2.552083,5 -6.385417,7.5 -11.5,7.5 z m 0,7.8125 c 8.177083,0 14.421875,-3.234375 18.734375,-9.703125 4.3125,-6.458333 6.46875,-15.838542 6.46875,-28.140625 0,-12.270833 -2.15625,-21.640625 -6.46875,-28.109375 -4.3125,-6.458333 -10.557292,-9.6875 -18.734375,-9.6875 -8.166667,0 -14.40625,3.229167 -18.71875,9.6875 C 8.75,14.734375 6.59375,24.104167 6.59375,36.375 c 0,12.302083 2.15625,21.682292 6.46875,28.140625 4.3125,6.46875 10.552083,9.703125 18.71875,9.703125 z"
                               style="fill:#000000;fill-opacity:1;fill-rule:nonzero;stroke:none"
                               id="path6004" /></g></g></g></g></g><g
                     id="g6006"><g
                       id="g6008"><g
                         id="g6010"><g
                           id="g6012"
                           transform="translate(44.845313,190.30132)"><g
                             id="g6014"><path
                               d="M 0,0 H -3.5"
                               style="fill:#000000;fill-opacity:1;fill-rule:nonzero;stroke:#000000;stroke-width:0.8;stroke-linecap:butt;stroke-linejoin:round;stroke-miterlimit:4;stroke-dasharray:none;stroke-opacity:1"
                               id="path6016" /></g></g></g></g><g
                       id="g6018"><g
                         id="g6020"
                         transform="matrix(0.1,0,0,-0.1,7.2,194.10054)"><g
                           id="g6022"><g
                             id="g6024"><path
                               d="M 10.59375,35.5 H 73.1875 V 27.203125 H 10.59375 Z"
                               style="fill:#000000;fill-opacity:1;fill-rule:nonzero;stroke:none"
                               id="path6026" /></g></g><g
                           id="g6028"
                           transform="translate(83.789062)"><g
                             id="g6030"><path
                               d="m 31.78125,66.40625 c -5.072917,0 -8.890625,-2.5 -11.453125,-7.5 C 17.776042,53.916667 16.5,46.40625 16.5,36.375 c 0,-9.989583 1.276042,-17.484375 3.828125,-22.484375 2.5625,-5 6.380208,-7.5 11.453125,-7.5 5.114583,0 8.947917,2.5 11.5,7.5 2.5625,5 3.84375,12.494792 3.84375,22.484375 0,10.03125 -1.28125,17.541667 -3.84375,22.53125 -2.552083,5 -6.385417,7.5 -11.5,7.5 z m 0,7.8125 c 8.177083,0 14.421875,-3.234375 18.734375,-9.703125 4.3125,-6.458333 6.46875,-15.838542 6.46875,-28.140625 0,-12.270833 -2.15625,-21.640625 -6.46875,-28.109375 -4.3125,-6.458333 -10.557292,-9.6875 -18.734375,-9.6875 -8.166667,0 -14.40625,3.229167 -18.71875,9.6875 C 8.75,14.734375 6.59375,24.104167 6.59375,36.375 c 0,12.302083 2.15625,21.682292 6.46875,28.140625 4.3125,6.46875 10.552083,9.703125 18.71875,9.703125 z"
                               style="fill:#000000;fill-opacity:1;fill-rule:nonzero;stroke:none"
                               id="path6032" /></g></g><g
                           id="g6034"
                           transform="translate(147.41211)"><g
                             id="g6036"><path
                               d="M 10.6875,12.40625 H 21 V 0 H 10.6875 Z"
                               style="fill:#000000;fill-opacity:1;fill-rule:nonzero;stroke:none"
                               id="path6038" /></g></g><g
                           id="g6040"
                           transform="translate(179.19922)"><g
                             id="g6042"><path
                               d="m 8.203125,72.90625 h 46.875 V 68.703125 L 28.609375,0 H 18.3125 L 43.21875,64.59375 H 8.203125 Z"
                               style="fill:#000000;fill-opacity:1;fill-rule:nonzero;stroke:none"
                               id="path6044" /></g></g><g
                           id="g6046"
                           transform="translate(242.82227)"><g
                             id="g6048"><path
                               d="m 10.796875,72.90625 h 38.71875 v -8.3125 h -29.6875 V 46.734375 c 1.427083,0.489583 2.854167,0.854167 4.28125,1.09375 1.4375,0.239583 2.875,0.359375 4.3125,0.359375 C 36.557292,48.1875 43,45.958333 47.75,41.5 52.510417,37.041667 54.890625,31.005208 54.890625,23.390625 54.890625,15.546875 52.447917,9.447917 47.5625,5.09375 42.677083,0.75 35.791667,-1.421875 26.90625,-1.421875 c -3.0625,0 -6.182292,0.260417 -9.359375,0.78125 -3.166667,0.520833 -6.442708,1.302083 -9.828125,2.34375 V 11.625 c 2.927083,-1.59375 5.953125,-2.78125 9.078125,-3.5625 3.125,-0.78125 6.427083,-1.171875 9.90625,-1.171875 5.635417,0 10.09375,1.479167 13.375,4.4375 3.291667,2.958333 4.9375,6.979167 4.9375,12.0625 0,5.072917 -1.645833,9.088542 -4.9375,12.046875 -3.28125,2.96875 -7.739583,4.453125 -13.375,4.453125 -2.635417,0 -5.265625,-0.291667 -7.890625,-0.875 -2.614583,-0.583333 -5.286458,-1.494792 -8.015625,-2.734375 z"
                               style="fill:#000000;fill-opacity:1;fill-rule:nonzero;stroke:none"
                               id="path6050" /></g></g></g></g></g><g
                     id="g6052"><g
                       id="g6054"><g
                         id="g6056"><g
                           id="g6058"
                           transform="translate(44.845313,165.50755)"><g
                             id="g6060"><path
                               d="M 0,0 H -3.5"
                               style="fill:#000000;fill-opacity:1;fill-rule:nonzero;stroke:#000000;stroke-width:0.8;stroke-linecap:butt;stroke-linejoin:round;stroke-miterlimit:4;stroke-dasharray:none;stroke-opacity:1"
                               id="path6062" /></g></g></g></g><g
                       id="g6064"><g
                         id="g6066"
                         transform="matrix(0.1,0,0,-0.1,7.2,169.30677)"><g
                           id="g6068"><g
                             id="g6070"><path
                               d="M 10.59375,35.5 H 73.1875 V 27.203125 H 10.59375 Z"
                               style="fill:#000000;fill-opacity:1;fill-rule:nonzero;stroke:none"
                               id="path6072" /></g></g><g
                           id="g6074"
                           transform="translate(83.789062)"><g
                             id="g6076"><path
                               d="m 31.78125,66.40625 c -5.072917,0 -8.890625,-2.5 -11.453125,-7.5 C 17.776042,53.916667 16.5,46.40625 16.5,36.375 c 0,-9.989583 1.276042,-17.484375 3.828125,-22.484375 2.5625,-5 6.380208,-7.5 11.453125,-7.5 5.114583,0 8.947917,2.5 11.5,7.5 2.5625,5 3.84375,12.494792 3.84375,22.484375 0,10.03125 -1.28125,17.541667 -3.84375,22.53125 -2.552083,5 -6.385417,7.5 -11.5,7.5 z m 0,7.8125 c 8.177083,0 14.421875,-3.234375 18.734375,-9.703125 4.3125,-6.458333 6.46875,-15.838542 6.46875,-28.140625 0,-12.270833 -2.15625,-21.640625 -6.46875,-28.109375 -4.3125,-6.458333 -10.557292,-9.6875 -18.734375,-9.6875 -8.166667,0 -14.40625,3.229167 -18.71875,9.6875 C 8.75,14.734375 6.59375,24.104167 6.59375,36.375 c 0,12.302083 2.15625,21.682292 6.46875,28.140625 4.3125,6.46875 10.552083,9.703125 18.71875,9.703125 z"
                               style="fill:#000000;fill-opacity:1;fill-rule:nonzero;stroke:none"
                               id="path6078" /></g></g><g
                           id="g6080"
                           transform="translate(147.41211)"><g
                             id="g6082"><path
                               d="M 10.6875,12.40625 H 21 V 0 H 10.6875 Z"
                               style="fill:#000000;fill-opacity:1;fill-rule:nonzero;stroke:none"
                               id="path6084" /></g></g><g
                           id="g6086"
                           transform="translate(179.19922)"><g
                             id="g6088"><path
                               d="m 10.796875,72.90625 h 38.71875 v -8.3125 h -29.6875 V 46.734375 c 1.427083,0.489583 2.854167,0.854167 4.28125,1.09375 1.4375,0.239583 2.875,0.359375 4.3125,0.359375 C 36.557292,48.1875 43,45.958333 47.75,41.5 52.510417,37.041667 54.890625,31.005208 54.890625,23.390625 54.890625,15.546875 52.447917,9.447917 47.5625,5.09375 42.677083,0.75 35.791667,-1.421875 26.90625,-1.421875 c -3.0625,0 -6.182292,0.260417 -9.359375,0.78125 -3.166667,0.520833 -6.442708,1.302083 -9.828125,2.34375 V 11.625 c 2.927083,-1.59375 5.953125,-2.78125 9.078125,-3.5625 3.125,-0.78125 6.427083,-1.171875 9.90625,-1.171875 5.635417,0 10.09375,1.479167 13.375,4.4375 3.291667,2.958333 4.9375,6.979167 4.9375,12.0625 0,5.072917 -1.645833,9.088542 -4.9375,12.046875 -3.28125,2.96875 -7.739583,4.453125 -13.375,4.453125 -2.635417,0 -5.265625,-0.291667 -7.890625,-0.875 -2.614583,-0.583333 -5.286458,-1.494792 -8.015625,-2.734375 z"
                               style="fill:#000000;fill-opacity:1;fill-rule:nonzero;stroke:none"
                               id="path6090" /></g></g><g
                           id="g6092"
                           transform="translate(242.82227)"><g
                             id="g6094"><path
                               d="m 31.78125,66.40625 c -5.072917,0 -8.890625,-2.5 -11.453125,-7.5 C 17.776042,53.916667 16.5,46.40625 16.5,36.375 c 0,-9.989583 1.276042,-17.484375 3.828125,-22.484375 2.5625,-5 6.380208,-7.5 11.453125,-7.5 5.114583,0 8.947917,2.5 11.5,7.5 2.5625,5 3.84375,12.494792 3.84375,22.484375 0,10.03125 -1.28125,17.541667 -3.84375,22.53125 -2.552083,5 -6.385417,7.5 -11.5,7.5 z m 0,7.8125 c 8.177083,0 14.421875,-3.234375 18.734375,-9.703125 4.3125,-6.458333 6.46875,-15.838542 6.46875,-28.140625 0,-12.270833 -2.15625,-21.640625 -6.46875,-28.109375 -4.3125,-6.458333 -10.557292,-9.6875 -18.734375,-9.6875 -8.166667,0 -14.40625,3.229167 -18.71875,9.6875 C 8.75,14.734375 6.59375,24.104167 6.59375,36.375 c 0,12.302083 2.15625,21.682292 6.46875,28.140625 4.3125,6.46875 10.552083,9.703125 18.71875,9.703125 z"
                               style="fill:#000000;fill-opacity:1;fill-rule:nonzero;stroke:none"
                               id="path6096" /></g></g></g></g></g><g
                     id="g6098"><g
                       id="g6100"><g
                         id="g6102"><g
                           id="g6104"
                           transform="translate(44.845313,140.71377)"><g
                             id="g6106"><path
                               d="M 0,0 H -3.5"
                               style="fill:#000000;fill-opacity:1;fill-rule:nonzero;stroke:#000000;stroke-width:0.8;stroke-linecap:butt;stroke-linejoin:round;stroke-miterlimit:4;stroke-dasharray:none;stroke-opacity:1"
                               id="path6108" /></g></g></g></g><g
                       id="g6110"><g
                         id="g6112"
                         transform="matrix(0.1,0,0,-0.1,7.2,144.51299)"><g
                           id="g6114"><g
                             id="g6116"><path
                               d="M 10.59375,35.5 H 73.1875 V 27.203125 H 10.59375 Z"
                               style="fill:#000000;fill-opacity:1;fill-rule:nonzero;stroke:none"
                               id="path6118" /></g></g><g
                           id="g6120"
                           transform="translate(83.789062)"><g
                             id="g6122"><path
                               d="m 31.78125,66.40625 c -5.072917,0 -8.890625,-2.5 -11.453125,-7.5 C 17.776042,53.916667 16.5,46.40625 16.5,36.375 c 0,-9.989583 1.276042,-17.484375 3.828125,-22.484375 2.5625,-5 6.380208,-7.5 11.453125,-7.5 5.114583,0 8.947917,2.5 11.5,7.5 2.5625,5 3.84375,12.494792 3.84375,22.484375 0,10.03125 -1.28125,17.541667 -3.84375,22.53125 -2.552083,5 -6.385417,7.5 -11.5,7.5 z m 0,7.8125 c 8.177083,0 14.421875,-3.234375 18.734375,-9.703125 4.3125,-6.458333 6.46875,-15.838542 6.46875,-28.140625 0,-12.270833 -2.15625,-21.640625 -6.46875,-28.109375 -4.3125,-6.458333 -10.557292,-9.6875 -18.734375,-9.6875 -8.166667,0 -14.40625,3.229167 -18.71875,9.6875 C 8.75,14.734375 6.59375,24.104167 6.59375,36.375 c 0,12.302083 2.15625,21.682292 6.46875,28.140625 4.3125,6.46875 10.552083,9.703125 18.71875,9.703125 z"
                               style="fill:#000000;fill-opacity:1;fill-rule:nonzero;stroke:none"
                               id="path6124" /></g></g><g
                           id="g6126"
                           transform="translate(147.41211)"><g
                             id="g6128"><path
                               d="M 10.6875,12.40625 H 21 V 0 H 10.6875 Z"
                               style="fill:#000000;fill-opacity:1;fill-rule:nonzero;stroke:none"
                               id="path6130" /></g></g><g
                           id="g6132"
                           transform="translate(179.19922)"><g
                             id="g6134"><path
                               d="M 19.1875,8.296875 H 53.609375 V 0 H 7.328125 v 8.296875 c 3.739583,3.875 8.838542,9.072917 15.296875,15.59375 6.46875,6.53125 10.53125,10.744792 12.1875,12.640625 3.15625,3.541667 5.359375,6.541667 6.609375,9 1.260417,2.458333 1.890625,4.875 1.890625,7.25 0,3.875 -1.359375,7.03125 -4.078125,9.46875 -2.71875,2.447917 -6.260417,3.671875 -10.625,3.671875 -3.09375,0 -6.359375,-0.536458 -9.796875,-1.609375 -3.427083,-1.072917 -7.09375,-2.703125 -11,-4.890625 v 9.96875 c 3.96875,1.59375 7.677083,2.796875 11.125,3.609375 3.458333,0.8125 6.619792,1.21875 9.484375,1.21875 7.552083,0 13.572917,-1.890625 18.0625,-5.671875 4.489583,-3.770833 6.734375,-8.8125 6.734375,-15.125 0,-3 -0.5625,-5.84375 -1.6875,-8.53125 -1.114583,-2.677083 -3.15625,-5.838542 -6.125,-9.484375 -0.8125,-0.947917 -3.401042,-3.677083 -7.765625,-8.1875 C 33.286458,22.708333 27.135417,16.401042 19.1875,8.296875 Z"
                               style="fill:#000000;fill-opacity:1;fill-rule:nonzero;stroke:none"
                               id="path6136" /></g></g><g
                           id="g6138"
                           transform="translate(242.82227)"><g
                             id="g6140"><path
                               d="m 10.796875,72.90625 h 38.71875 v -8.3125 h -29.6875 V 46.734375 c 1.427083,0.489583 2.854167,0.854167 4.28125,1.09375 1.4375,0.239583 2.875,0.359375 4.3125,0.359375 C 36.557292,48.1875 43,45.958333 47.75,41.5 52.510417,37.041667 54.890625,31.005208 54.890625,23.390625 54.890625,15.546875 52.447917,9.447917 47.5625,5.09375 42.677083,0.75 35.791667,-1.421875 26.90625,-1.421875 c -3.0625,0 -6.182292,0.260417 -9.359375,0.78125 -3.166667,0.520833 -6.442708,1.302083 -9.828125,2.34375 V 11.625 c 2.927083,-1.59375 5.953125,-2.78125 9.078125,-3.5625 3.125,-0.78125 6.427083,-1.171875 9.90625,-1.171875 5.635417,0 10.09375,1.479167 13.375,4.4375 3.291667,2.958333 4.9375,6.979167 4.9375,12.0625 0,5.072917 -1.645833,9.088542 -4.9375,12.046875 -3.28125,2.96875 -7.739583,4.453125 -13.375,4.453125 -2.635417,0 -5.265625,-0.291667 -7.890625,-0.875 -2.614583,-0.583333 -5.286458,-1.494792 -8.015625,-2.734375 z"
                               style="fill:#000000;fill-opacity:1;fill-rule:nonzero;stroke:none"
                               id="path6142" /></g></g></g></g></g><g
                     id="g6144"><g
                       id="g6146"><g
                         id="g6148"><g
                           id="g6150"
                           transform="translate(44.845313,115.92)"><g
                             id="g6152"><path
                               d="M 0,0 H -3.5"
                               style="fill:#000000;fill-opacity:1;fill-rule:nonzero;stroke:#000000;stroke-width:0.8;stroke-linecap:butt;stroke-linejoin:round;stroke-miterlimit:4;stroke-dasharray:none;stroke-opacity:1"
                               id="path6154" /></g></g></g></g><g
                       id="g6156"><g
                         id="g6158"
                         transform="matrix(0.1,0,0,-0.1,15.579688,119.71922)"><g
                           id="g6160"><g
                             id="g6162"><path
                               d="m 31.78125,66.40625 c -5.072917,0 -8.890625,-2.5 -11.453125,-7.5 C 17.776042,53.916667 16.5,46.40625 16.5,36.375 c 0,-9.989583 1.276042,-17.484375 3.828125,-22.484375 2.5625,-5 6.380208,-7.5 11.453125,-7.5 5.114583,0 8.947917,2.5 11.5,7.5 2.5625,5 3.84375,12.494792 3.84375,22.484375 0,10.03125 -1.28125,17.541667 -3.84375,22.53125 -2.552083,5 -6.385417,7.5 -11.5,7.5 z m 0,7.8125 c 8.177083,0 14.421875,-3.234375 18.734375,-9.703125 4.3125,-6.458333 6.46875,-15.838542 6.46875,-28.140625 0,-12.270833 -2.15625,-21.640625 -6.46875,-28.109375 -4.3125,-6.458333 -10.557292,-9.6875 -18.734375,-9.6875 -8.166667,0 -14.40625,3.229167 -18.71875,9.6875 C 8.75,14.734375 6.59375,24.104167 6.59375,36.375 c 0,12.302083 2.15625,21.682292 6.46875,28.140625 4.3125,6.46875 10.552083,9.703125 18.71875,9.703125 z"
                               style="fill:#000000;fill-opacity:1;fill-rule:nonzero;stroke:none"
                               id="path6164" /></g></g><g
                           id="g6166"
                           transform="translate(63.623047)"><g
                             id="g6168"><path
                               d="M 10.6875,12.40625 H 21 V 0 H 10.6875 Z"
                               style="fill:#000000;fill-opacity:1;fill-rule:nonzero;stroke:none"
                               id="path6170" /></g></g><g
                           id="g6172"
                           transform="translate(95.410156)"><g
                             id="g6174"><path
                               d="m 31.78125,66.40625 c -5.072917,0 -8.890625,-2.5 -11.453125,-7.5 C 17.776042,53.916667 16.5,46.40625 16.5,36.375 c 0,-9.989583 1.276042,-17.484375 3.828125,-22.484375 2.5625,-5 6.380208,-7.5 11.453125,-7.5 5.114583,0 8.947917,2.5 11.5,7.5 2.5625,5 3.84375,12.494792 3.84375,22.484375 0,10.03125 -1.28125,17.541667 -3.84375,22.53125 -2.552083,5 -6.385417,7.5 -11.5,7.5 z m 0,7.8125 c 8.177083,0 14.421875,-3.234375 18.734375,-9.703125 4.3125,-6.458333 6.46875,-15.838542 6.46875,-28.140625 0,-12.270833 -2.15625,-21.640625 -6.46875,-28.109375 -4.3125,-6.458333 -10.557292,-9.6875 -18.734375,-9.6875 -8.166667,0 -14.40625,3.229167 -18.71875,9.6875 C 8.75,14.734375 6.59375,24.104167 6.59375,36.375 c 0,12.302083 2.15625,21.682292 6.46875,28.140625 4.3125,6.46875 10.552083,9.703125 18.71875,9.703125 z"
                               style="fill:#000000;fill-opacity:1;fill-rule:nonzero;stroke:none"
                               id="path6176" /></g></g><g
                           id="g6178"
                           transform="translate(159.0332)"><g
                             id="g6180"><path
                               d="m 31.78125,66.40625 c -5.072917,0 -8.890625,-2.5 -11.453125,-7.5 C 17.776042,53.916667 16.5,46.40625 16.5,36.375 c 0,-9.989583 1.276042,-17.484375 3.828125,-22.484375 2.5625,-5 6.380208,-7.5 11.453125,-7.5 5.114583,0 8.947917,2.5 11.5,7.5 2.5625,5 3.84375,12.494792 3.84375,22.484375 0,10.03125 -1.28125,17.541667 -3.84375,22.53125 -2.552083,5 -6.385417,7.5 -11.5,7.5 z m 0,7.8125 c 8.177083,0 14.421875,-3.234375 18.734375,-9.703125 4.3125,-6.458333 6.46875,-15.838542 6.46875,-28.140625 0,-12.270833 -2.15625,-21.640625 -6.46875,-28.109375 -4.3125,-6.458333 -10.557292,-9.6875 -18.734375,-9.6875 -8.166667,0 -14.40625,3.229167 -18.71875,9.6875 C 8.75,14.734375 6.59375,24.104167 6.59375,36.375 c 0,12.302083 2.15625,21.682292 6.46875,28.140625 4.3125,6.46875 10.552083,9.703125 18.71875,9.703125 z"
                               style="fill:#000000;fill-opacity:1;fill-rule:nonzero;stroke:none"
                               id="path6182" /></g></g></g></g></g><g
                     id="g6184"><g
                       id="g6186"><g
                         id="g6188"><g
                           id="g6190"
                           transform="translate(44.845313,91.126226)"><g
                             id="g6192"><path
                               d="M 0,0 H -3.5"
                               style="fill:#000000;fill-opacity:1;fill-rule:nonzero;stroke:#000000;stroke-width:0.8;stroke-linecap:butt;stroke-linejoin:round;stroke-miterlimit:4;stroke-dasharray:none;stroke-opacity:1"
                               id="path6194" /></g></g></g></g><g
                       id="g6196"><g
                         id="g6198"
                         transform="matrix(0.1,0,0,-0.1,15.579688,94.925445)"><g
                           id="g6200"><g
                             id="g6202"><path
                               d="m 31.78125,66.40625 c -5.072917,0 -8.890625,-2.5 -11.453125,-7.5 C 17.776042,53.916667 16.5,46.40625 16.5,36.375 c 0,-9.989583 1.276042,-17.484375 3.828125,-22.484375 2.5625,-5 6.380208,-7.5 11.453125,-7.5 5.114583,0 8.947917,2.5 11.5,7.5 2.5625,5 3.84375,12.494792 3.84375,22.484375 0,10.03125 -1.28125,17.541667 -3.84375,22.53125 -2.552083,5 -6.385417,7.5 -11.5,7.5 z m 0,7.8125 c 8.177083,0 14.421875,-3.234375 18.734375,-9.703125 4.3125,-6.458333 6.46875,-15.838542 6.46875,-28.140625 0,-12.270833 -2.15625,-21.640625 -6.46875,-28.109375 -4.3125,-6.458333 -10.557292,-9.6875 -18.734375,-9.6875 -8.166667,0 -14.40625,3.229167 -18.71875,9.6875 C 8.75,14.734375 6.59375,24.104167 6.59375,36.375 c 0,12.302083 2.15625,21.682292 6.46875,28.140625 4.3125,6.46875 10.552083,9.703125 18.71875,9.703125 z"
                               style="fill:#000000;fill-opacity:1;fill-rule:nonzero;stroke:none"
                               id="path6204" /></g></g><g
                           id="g6206"
                           transform="translate(63.623047)"><g
                             id="g6208"><path
                               d="M 10.6875,12.40625 H 21 V 0 H 10.6875 Z"
                               style="fill:#000000;fill-opacity:1;fill-rule:nonzero;stroke:none"
                               id="path6210" /></g></g><g
                           id="g6212"
                           transform="translate(95.410156)"><g
                             id="g6214"><path
                               d="M 19.1875,8.296875 H 53.609375 V 0 H 7.328125 v 8.296875 c 3.739583,3.875 8.838542,9.072917 15.296875,15.59375 6.46875,6.53125 10.53125,10.744792 12.1875,12.640625 3.15625,3.541667 5.359375,6.541667 6.609375,9 1.260417,2.458333 1.890625,4.875 1.890625,7.25 0,3.875 -1.359375,7.03125 -4.078125,9.46875 -2.71875,2.447917 -6.260417,3.671875 -10.625,3.671875 -3.09375,0 -6.359375,-0.536458 -9.796875,-1.609375 -3.427083,-1.072917 -7.09375,-2.703125 -11,-4.890625 v 9.96875 c 3.96875,1.59375 7.677083,2.796875 11.125,3.609375 3.458333,0.8125 6.619792,1.21875 9.484375,1.21875 7.552083,0 13.572917,-1.890625 18.0625,-5.671875 4.489583,-3.770833 6.734375,-8.8125 6.734375,-15.125 0,-3 -0.5625,-5.84375 -1.6875,-8.53125 -1.114583,-2.677083 -3.15625,-5.838542 -6.125,-9.484375 -0.8125,-0.947917 -3.401042,-3.677083 -7.765625,-8.1875 C 33.286458,22.708333 27.135417,16.401042 19.1875,8.296875 Z"
                               style="fill:#000000;fill-opacity:1;fill-rule:nonzero;stroke:none"
                               id="path6216" /></g></g><g
                           id="g6218"
                           transform="translate(159.0332)"><g
                             id="g6220"><path
                               d="m 10.796875,72.90625 h 38.71875 v -8.3125 h -29.6875 V 46.734375 c 1.427083,0.489583 2.854167,0.854167 4.28125,1.09375 1.4375,0.239583 2.875,0.359375 4.3125,0.359375 C 36.557292,48.1875 43,45.958333 47.75,41.5 52.510417,37.041667 54.890625,31.005208 54.890625,23.390625 54.890625,15.546875 52.447917,9.447917 47.5625,5.09375 42.677083,0.75 35.791667,-1.421875 26.90625,-1.421875 c -3.0625,0 -6.182292,0.260417 -9.359375,0.78125 -3.166667,0.520833 -6.442708,1.302083 -9.828125,2.34375 V 11.625 c 2.927083,-1.59375 5.953125,-2.78125 9.078125,-3.5625 3.125,-0.78125 6.427083,-1.171875 9.90625,-1.171875 5.635417,0 10.09375,1.479167 13.375,4.4375 3.291667,2.958333 4.9375,6.979167 4.9375,12.0625 0,5.072917 -1.645833,9.088542 -4.9375,12.046875 -3.28125,2.96875 -7.739583,4.453125 -13.375,4.453125 -2.635417,0 -5.265625,-0.291667 -7.890625,-0.875 -2.614583,-0.583333 -5.286458,-1.494792 -8.015625,-2.734375 z"
                               style="fill:#000000;fill-opacity:1;fill-rule:nonzero;stroke:none"
                               id="path6222" /></g></g></g></g></g><g
                     id="g6224"><g
                       id="g6226"><g
                         id="g6228"><g
                           id="g6230"
                           transform="translate(44.845313,66.332452)"><g
                             id="g6232"><path
                               d="M 0,0 H -3.5"
                               style="fill:#000000;fill-opacity:1;fill-rule:nonzero;stroke:#000000;stroke-width:0.8;stroke-linecap:butt;stroke-linejoin:round;stroke-miterlimit:4;stroke-dasharray:none;stroke-opacity:1"
                               id="path6234" /></g></g></g></g><g
                       id="g6236"><g
                         id="g6238"
                         transform="matrix(0.1,0,0,-0.1,15.579688,70.13167)"><g
                           id="g6240"><g
                             id="g6242"><path
                               d="m 31.78125,66.40625 c -5.072917,0 -8.890625,-2.5 -11.453125,-7.5 C 17.776042,53.916667 16.5,46.40625 16.5,36.375 c 0,-9.989583 1.276042,-17.484375 3.828125,-22.484375 2.5625,-5 6.380208,-7.5 11.453125,-7.5 5.114583,0 8.947917,2.5 11.5,7.5 2.5625,5 3.84375,12.494792 3.84375,22.484375 0,10.03125 -1.28125,17.541667 -3.84375,22.53125 -2.552083,5 -6.385417,7.5 -11.5,7.5 z m 0,7.8125 c 8.177083,0 14.421875,-3.234375 18.734375,-9.703125 4.3125,-6.458333 6.46875,-15.838542 6.46875,-28.140625 0,-12.270833 -2.15625,-21.640625 -6.46875,-28.109375 -4.3125,-6.458333 -10.557292,-9.6875 -18.734375,-9.6875 -8.166667,0 -14.40625,3.229167 -18.71875,9.6875 C 8.75,14.734375 6.59375,24.104167 6.59375,36.375 c 0,12.302083 2.15625,21.682292 6.46875,28.140625 4.3125,6.46875 10.552083,9.703125 18.71875,9.703125 z"
                               style="fill:#000000;fill-opacity:1;fill-rule:nonzero;stroke:none"
                               id="path6244" /></g></g><g
                           id="g6246"
                           transform="translate(63.623047)"><g
                             id="g6248"><path
                               d="M 10.6875,12.40625 H 21 V 0 H 10.6875 Z"
                               style="fill:#000000;fill-opacity:1;fill-rule:nonzero;stroke:none"
                               id="path6250" /></g></g><g
                           id="g6252"
                           transform="translate(95.410156)"><g
                             id="g6254"><path
                               d="m 10.796875,72.90625 h 38.71875 v -8.3125 h -29.6875 V 46.734375 c 1.427083,0.489583 2.854167,0.854167 4.28125,1.09375 1.4375,0.239583 2.875,0.359375 4.3125,0.359375 C 36.557292,48.1875 43,45.958333 47.75,41.5 52.510417,37.041667 54.890625,31.005208 54.890625,23.390625 54.890625,15.546875 52.447917,9.447917 47.5625,5.09375 42.677083,0.75 35.791667,-1.421875 26.90625,-1.421875 c -3.0625,0 -6.182292,0.260417 -9.359375,0.78125 -3.166667,0.520833 -6.442708,1.302083 -9.828125,2.34375 V 11.625 c 2.927083,-1.59375 5.953125,-2.78125 9.078125,-3.5625 3.125,-0.78125 6.427083,-1.171875 9.90625,-1.171875 5.635417,0 10.09375,1.479167 13.375,4.4375 3.291667,2.958333 4.9375,6.979167 4.9375,12.0625 0,5.072917 -1.645833,9.088542 -4.9375,12.046875 -3.28125,2.96875 -7.739583,4.453125 -13.375,4.453125 -2.635417,0 -5.265625,-0.291667 -7.890625,-0.875 -2.614583,-0.583333 -5.286458,-1.494792 -8.015625,-2.734375 z"
                               style="fill:#000000;fill-opacity:1;fill-rule:nonzero;stroke:none"
                               id="path6256" /></g></g><g
                           id="g6258"
                           transform="translate(159.0332)"><g
                             id="g6260"><path
                               d="m 31.78125,66.40625 c -5.072917,0 -8.890625,-2.5 -11.453125,-7.5 C 17.776042,53.916667 16.5,46.40625 16.5,36.375 c 0,-9.989583 1.276042,-17.484375 3.828125,-22.484375 2.5625,-5 6.380208,-7.5 11.453125,-7.5 5.114583,0 8.947917,2.5 11.5,7.5 2.5625,5 3.84375,12.494792 3.84375,22.484375 0,10.03125 -1.28125,17.541667 -3.84375,22.53125 -2.552083,5 -6.385417,7.5 -11.5,7.5 z m 0,7.8125 c 8.177083,0 14.421875,-3.234375 18.734375,-9.703125 4.3125,-6.458333 6.46875,-15.838542 6.46875,-28.140625 0,-12.270833 -2.15625,-21.640625 -6.46875,-28.109375 -4.3125,-6.458333 -10.557292,-9.6875 -18.734375,-9.6875 -8.166667,0 -14.40625,3.229167 -18.71875,9.6875 C 8.75,14.734375 6.59375,24.104167 6.59375,36.375 c 0,12.302083 2.15625,21.682292 6.46875,28.140625 4.3125,6.46875 10.552083,9.703125 18.71875,9.703125 z"
                               style="fill:#000000;fill-opacity:1;fill-rule:nonzero;stroke:none"
                               id="path6262" /></g></g></g></g></g><g
                     id="g6264"><g
                       id="g6266"><g
                         id="g6268"><g
                           id="g6270"
                           transform="translate(44.845313,41.538677)"><g
                             id="g6272"><path
                               d="M 0,0 H -3.5"
                               style="fill:#000000;fill-opacity:1;fill-rule:nonzero;stroke:#000000;stroke-width:0.8;stroke-linecap:butt;stroke-linejoin:round;stroke-miterlimit:4;stroke-dasharray:none;stroke-opacity:1"
                               id="path6274" /></g></g></g></g><g
                       id="g6276"><g
                         id="g6278"
                         transform="matrix(0.1,0,0,-0.1,15.579688,45.337896)"><g
                           id="g6280"><g
                             id="g6282"><path
                               d="m 31.78125,66.40625 c -5.072917,0 -8.890625,-2.5 -11.453125,-7.5 C 17.776042,53.916667 16.5,46.40625 16.5,36.375 c 0,-9.989583 1.276042,-17.484375 3.828125,-22.484375 2.5625,-5 6.380208,-7.5 11.453125,-7.5 5.114583,0 8.947917,2.5 11.5,7.5 2.5625,5 3.84375,12.494792 3.84375,22.484375 0,10.03125 -1.28125,17.541667 -3.84375,22.53125 -2.552083,5 -6.385417,7.5 -11.5,7.5 z m 0,7.8125 c 8.177083,0 14.421875,-3.234375 18.734375,-9.703125 4.3125,-6.458333 6.46875,-15.838542 6.46875,-28.140625 0,-12.270833 -2.15625,-21.640625 -6.46875,-28.109375 -4.3125,-6.458333 -10.557292,-9.6875 -18.734375,-9.6875 -8.166667,0 -14.40625,3.229167 -18.71875,9.6875 C 8.75,14.734375 6.59375,24.104167 6.59375,36.375 c 0,12.302083 2.15625,21.682292 6.46875,28.140625 4.3125,6.46875 10.552083,9.703125 18.71875,9.703125 z"
                               style="fill:#000000;fill-opacity:1;fill-rule:nonzero;stroke:none"
                               id="path6284" /></g></g><g
                           id="g6286"
                           transform="translate(63.623047)"><g
                             id="g6288"><path
                               d="M 10.6875,12.40625 H 21 V 0 H 10.6875 Z"
                               style="fill:#000000;fill-opacity:1;fill-rule:nonzero;stroke:none"
                               id="path6290" /></g></g><g
                           id="g6292"
                           transform="translate(95.410156)"><g
                             id="g6294"><path
                               d="m 8.203125,72.90625 h 46.875 V 68.703125 L 28.609375,0 H 18.3125 L 43.21875,64.59375 H 8.203125 Z"
                               style="fill:#000000;fill-opacity:1;fill-rule:nonzero;stroke:none"
                               id="path6296" /></g></g><g
                           id="g6298"
                           transform="translate(159.0332)"><g
                             id="g6300"><path
                               d="m 10.796875,72.90625 h 38.71875 v -8.3125 h -29.6875 V 46.734375 c 1.427083,0.489583 2.854167,0.854167 4.28125,1.09375 1.4375,0.239583 2.875,0.359375 4.3125,0.359375 C 36.557292,48.1875 43,45.958333 47.75,41.5 52.510417,37.041667 54.890625,31.005208 54.890625,23.390625 54.890625,15.546875 52.447917,9.447917 47.5625,5.09375 42.677083,0.75 35.791667,-1.421875 26.90625,-1.421875 c -3.0625,0 -6.182292,0.260417 -9.359375,0.78125 -3.166667,0.520833 -6.442708,1.302083 -9.828125,2.34375 V 11.625 c 2.927083,-1.59375 5.953125,-2.78125 9.078125,-3.5625 3.125,-0.78125 6.427083,-1.171875 9.90625,-1.171875 5.635417,0 10.09375,1.479167 13.375,4.4375 3.291667,2.958333 4.9375,6.979167 4.9375,12.0625 0,5.072917 -1.645833,9.088542 -4.9375,12.046875 -3.28125,2.96875 -7.739583,4.453125 -13.375,4.453125 -2.635417,0 -5.265625,-0.291667 -7.890625,-0.875 -2.614583,-0.583333 -5.286458,-1.494792 -8.015625,-2.734375 z"
                               style="fill:#000000;fill-opacity:1;fill-rule:nonzero;stroke:none"
                               id="path6302" /></g></g></g></g></g><g
                     id="g6304"><g
                       id="g6306"><g
                         id="g6308"><g
                           id="g6310"
                           transform="translate(44.845313,16.744903)"><g
                             id="g6312"><path
                               d="M 0,0 H -3.5"
                               style="fill:#000000;fill-opacity:1;fill-rule:nonzero;stroke:#000000;stroke-width:0.8;stroke-linecap:butt;stroke-linejoin:round;stroke-miterlimit:4;stroke-dasharray:none;stroke-opacity:1"
                               id="path6314" /></g></g></g></g><g
                       id="g6316"><g
                         id="g6318"
                         transform="matrix(0.1,0,0,-0.1,15.579688,20.544122)"><g
                           id="g6320"><g
                             id="g6322"><path
                               d="m 12.40625,8.296875 h 16.109375 v 55.625 L 10.984375,60.40625 v 8.984375 l 17.4375,3.515625 H 38.28125 V 8.296875 H 54.390625 V 0 H 12.40625 Z"
                               style="fill:#000000;fill-opacity:1;fill-rule:nonzero;stroke:none"
                               id="path6324" /></g></g><g
                           id="g6326"
                           transform="translate(63.623047)"><g
                             id="g6328"><path
                               d="M 10.6875,12.40625 H 21 V 0 H 10.6875 Z"
                               style="fill:#000000;fill-opacity:1;fill-rule:nonzero;stroke:none"
                               id="path6330" /></g></g><g
                           id="g6332"
                           transform="translate(95.410156)"><g
                             id="g6334"><path
                               d="m 31.78125,66.40625 c -5.072917,0 -8.890625,-2.5 -11.453125,-7.5 C 17.776042,53.916667 16.5,46.40625 16.5,36.375 c 0,-9.989583 1.276042,-17.484375 3.828125,-22.484375 2.5625,-5 6.380208,-7.5 11.453125,-7.5 5.114583,0 8.947917,2.5 11.5,7.5 2.5625,5 3.84375,12.494792 3.84375,22.484375 0,10.03125 -1.28125,17.541667 -3.84375,22.53125 -2.552083,5 -6.385417,7.5 -11.5,7.5 z m 0,7.8125 c 8.177083,0 14.421875,-3.234375 18.734375,-9.703125 4.3125,-6.458333 6.46875,-15.838542 6.46875,-28.140625 0,-12.270833 -2.15625,-21.640625 -6.46875,-28.109375 -4.3125,-6.458333 -10.557292,-9.6875 -18.734375,-9.6875 -8.166667,0 -14.40625,3.229167 -18.71875,9.6875 C 8.75,14.734375 6.59375,24.104167 6.59375,36.375 c 0,12.302083 2.15625,21.682292 6.46875,28.140625 4.3125,6.46875 10.552083,9.703125 18.71875,9.703125 z"
                               style="fill:#000000;fill-opacity:1;fill-rule:nonzero;stroke:none"
                               id="path6336" /></g></g><g
                           id="g6338"
                           transform="translate(159.0332)"><g
                             id="g6340"><path
                               d="m 31.78125,66.40625 c -5.072917,0 -8.890625,-2.5 -11.453125,-7.5 C 17.776042,53.916667 16.5,46.40625 16.5,36.375 c 0,-9.989583 1.276042,-17.484375 3.828125,-22.484375 2.5625,-5 6.380208,-7.5 11.453125,-7.5 5.114583,0 8.947917,2.5 11.5,7.5 2.5625,5 3.84375,12.494792 3.84375,22.484375 0,10.03125 -1.28125,17.541667 -3.84375,22.53125 -2.552083,5 -6.385417,7.5 -11.5,7.5 z m 0,7.8125 c 8.177083,0 14.421875,-3.234375 18.734375,-9.703125 4.3125,-6.458333 6.46875,-15.838542 6.46875,-28.140625 0,-12.270833 -2.15625,-21.640625 -6.46875,-28.109375 -4.3125,-6.458333 -10.557292,-9.6875 -18.734375,-9.6875 -8.166667,0 -14.40625,3.229167 -18.71875,9.6875 C 8.75,14.734375 6.59375,24.104167 6.59375,36.375 c 0,12.302083 2.15625,21.682292 6.46875,28.140625 4.3125,6.46875 10.552083,9.703125 18.71875,9.703125 z"
                               style="fill:#000000;fill-opacity:1;fill-rule:nonzero;stroke:none"
                               id="path6342" /></g></g></g></g></g></g><g
                   id="g6344"><g
                     id="g6346"><g
                       id="g6348" /><g
                       id="g6366"
                       mask="url(#mask6354)"><path
                         d="M 44.845313,115.92 62.466365,25.098092 80.087418,188.88549 97.70847,148.1221 115.32952,17.083636 132.95058,163.12213 150.57163,176.8346 168.19268,19.779635 185.81373,132.24368 203.43479,198.94607 221.05584,32.893933 238.67689,99.596316 256.29794,212.06036 273.919,55.005395 291.54005,68.717871 309.1611,214.75636 326.78215,83.717899 344.40321,42.95451 362.02426,206.74191 379.64531,115.92"
                         style="fill:none;stroke:#1f77b4;stroke-width:1.5;stroke-linecap:butt;stroke-linejoin:round;stroke-miterlimit:4;stroke-dasharray:5.55, 2.4;stroke-dashoffset:0;stroke-opacity:1"
                         id="path6368" /></g></g><g
                     id="g6370"><g
                       id="g6372" /><g
                       id="g6390"
                       mask="url(#mask6378)"><g
                         id="g6392" /><g
                         id="g6520"><g
                           clip-path="url(#clipPath6396)"
                           id="g6518"><g
                             transform="translate(44.845313,115.92)"
                             id="g6402"><g
                               id="g6400"><path
                                 d="M 0,3 C 0.795609,3 1.55874,2.683901 2.12132,2.12132 2.683901,1.55874 3,0.795609 3,0 3,-0.795609 2.683901,-1.55874 2.12132,-2.12132 1.55874,-2.683901 0.795609,-3 0,-3 -0.795609,-3 -1.55874,-2.683901 -2.12132,-2.12132 -2.683901,-1.55874 -3,-0.795609 -3,0 -3,0.795609 -2.683901,1.55874 -2.12132,2.12132 -1.55874,2.683901 -0.795609,3 0,3 Z"
                                 style="fill:#1f77b4;fill-opacity:1;fill-rule:nonzero;stroke:#1f77b4;stroke-width:1;stroke-linecap:butt;stroke-linejoin:round;stroke-miterlimit:4;stroke-dasharray:none;stroke-opacity:1"
                                 id="path6398" /></g></g><g
                             transform="translate(62.466365,25.098092)"
                             id="g6408"><g
                               id="g6406"><path
                                 d="M 0,3 C 0.795609,3 1.55874,2.683901 2.12132,2.12132 2.683901,1.55874 3,0.795609 3,0 3,-0.795609 2.683901,-1.55874 2.12132,-2.12132 1.55874,-2.683901 0.795609,-3 0,-3 -0.795609,-3 -1.55874,-2.683901 -2.12132,-2.12132 -2.683901,-1.55874 -3,-0.795609 -3,0 -3,0.795609 -2.683901,1.55874 -2.12132,2.12132 -1.55874,2.683901 -0.795609,3 0,3 Z"
                                 style="fill:#1f77b4;fill-opacity:1;fill-rule:nonzero;stroke:#1f77b4;stroke-width:1;stroke-linecap:butt;stroke-linejoin:round;stroke-miterlimit:4;stroke-dasharray:none;stroke-opacity:1"
                                 id="path6404" /></g></g><g
                             transform="translate(80.087418,188.88549)"
                             id="g6414"><g
                               id="g6412"><path
                                 d="M 0,3 C 0.795609,3 1.55874,2.683901 2.12132,2.12132 2.683901,1.55874 3,0.795609 3,0 3,-0.795609 2.683901,-1.55874 2.12132,-2.12132 1.55874,-2.683901 0.795609,-3 0,-3 -0.795609,-3 -1.55874,-2.683901 -2.12132,-2.12132 -2.683901,-1.55874 -3,-0.795609 -3,0 -3,0.795609 -2.683901,1.55874 -2.12132,2.12132 -1.55874,2.683901 -0.795609,3 0,3 Z"
                                 style="fill:#1f77b4;fill-opacity:1;fill-rule:nonzero;stroke:#1f77b4;stroke-width:1;stroke-linecap:butt;stroke-linejoin:round;stroke-miterlimit:4;stroke-dasharray:none;stroke-opacity:1"
                                 id="path6410" /></g></g><g
                             transform="translate(97.70847,148.1221)"
                             id="g6420"><g
                               id="g6418"><path
                                 d="M 0,3 C 0.795609,3 1.55874,2.683901 2.12132,2.12132 2.683901,1.55874 3,0.795609 3,0 3,-0.795609 2.683901,-1.55874 2.12132,-2.12132 1.55874,-2.683901 0.795609,-3 0,-3 -0.795609,-3 -1.55874,-2.683901 -2.12132,-2.12132 -2.683901,-1.55874 -3,-0.795609 -3,0 -3,0.795609 -2.683901,1.55874 -2.12132,2.12132 -1.55874,2.683901 -0.795609,3 0,3 Z"
                                 style="fill:#1f77b4;fill-opacity:1;fill-rule:nonzero;stroke:#1f77b4;stroke-width:1;stroke-linecap:butt;stroke-linejoin:round;stroke-miterlimit:4;stroke-dasharray:none;stroke-opacity:1"
                                 id="path6416" /></g></g><g
                             transform="translate(115.32952,17.083636)"
                             id="g6426"><g
                               id="g6424"><path
                                 d="M 0,3 C 0.795609,3 1.55874,2.683901 2.12132,2.12132 2.683901,1.55874 3,0.795609 3,0 3,-0.795609 2.683901,-1.55874 2.12132,-2.12132 1.55874,-2.683901 0.795609,-3 0,-3 -0.795609,-3 -1.55874,-2.683901 -2.12132,-2.12132 -2.683901,-1.55874 -3,-0.795609 -3,0 -3,0.795609 -2.683901,1.55874 -2.12132,2.12132 -1.55874,2.683901 -0.795609,3 0,3 Z"
                                 style="fill:#1f77b4;fill-opacity:1;fill-rule:nonzero;stroke:#1f77b4;stroke-width:1;stroke-linecap:butt;stroke-linejoin:round;stroke-miterlimit:4;stroke-dasharray:none;stroke-opacity:1"
                                 id="path6422" /></g></g><g
                             transform="translate(132.95058,163.12213)"
                             id="g6432"><g
                               id="g6430"><path
                                 d="M 0,3 C 0.795609,3 1.55874,2.683901 2.12132,2.12132 2.683901,1.55874 3,0.795609 3,0 3,-0.795609 2.683901,-1.55874 2.12132,-2.12132 1.55874,-2.683901 0.795609,-3 0,-3 -0.795609,-3 -1.55874,-2.683901 -2.12132,-2.12132 -2.683901,-1.55874 -3,-0.795609 -3,0 -3,0.795609 -2.683901,1.55874 -2.12132,2.12132 -1.55874,2.683901 -0.795609,3 0,3 Z"
                                 style="fill:#1f77b4;fill-opacity:1;fill-rule:nonzero;stroke:#1f77b4;stroke-width:1;stroke-linecap:butt;stroke-linejoin:round;stroke-miterlimit:4;stroke-dasharray:none;stroke-opacity:1"
                                 id="path6428" /></g></g><g
                             transform="translate(150.57163,176.8346)"
                             id="g6438"><g
                               id="g6436"><path
                                 d="M 0,3 C 0.795609,3 1.55874,2.683901 2.12132,2.12132 2.683901,1.55874 3,0.795609 3,0 3,-0.795609 2.683901,-1.55874 2.12132,-2.12132 1.55874,-2.683901 0.795609,-3 0,-3 -0.795609,-3 -1.55874,-2.683901 -2.12132,-2.12132 -2.683901,-1.55874 -3,-0.795609 -3,0 -3,0.795609 -2.683901,1.55874 -2.12132,2.12132 -1.55874,2.683901 -0.795609,3 0,3 Z"
                                 style="fill:#1f77b4;fill-opacity:1;fill-rule:nonzero;stroke:#1f77b4;stroke-width:1;stroke-linecap:butt;stroke-linejoin:round;stroke-miterlimit:4;stroke-dasharray:none;stroke-opacity:1"
                                 id="path6434" /></g></g><g
                             transform="translate(168.19268,19.779635)"
                             id="g6444"><g
                               id="g6442"><path
                                 d="M 0,3 C 0.795609,3 1.55874,2.683901 2.12132,2.12132 2.683901,1.55874 3,0.795609 3,0 3,-0.795609 2.683901,-1.55874 2.12132,-2.12132 1.55874,-2.683901 0.795609,-3 0,-3 -0.795609,-3 -1.55874,-2.683901 -2.12132,-2.12132 -2.683901,-1.55874 -3,-0.795609 -3,0 -3,0.795609 -2.683901,1.55874 -2.12132,2.12132 -1.55874,2.683901 -0.795609,3 0,3 Z"
                                 style="fill:#1f77b4;fill-opacity:1;fill-rule:nonzero;stroke:#1f77b4;stroke-width:1;stroke-linecap:butt;stroke-linejoin:round;stroke-miterlimit:4;stroke-dasharray:none;stroke-opacity:1"
                                 id="path6440" /></g></g><g
                             transform="translate(185.81373,132.24368)"
                             id="g6450"><g
                               id="g6448"><path
                                 d="M 0,3 C 0.795609,3 1.55874,2.683901 2.12132,2.12132 2.683901,1.55874 3,0.795609 3,0 3,-0.795609 2.683901,-1.55874 2.12132,-2.12132 1.55874,-2.683901 0.795609,-3 0,-3 -0.795609,-3 -1.55874,-2.683901 -2.12132,-2.12132 -2.683901,-1.55874 -3,-0.795609 -3,0 -3,0.795609 -2.683901,1.55874 -2.12132,2.12132 -1.55874,2.683901 -0.795609,3 0,3 Z"
                                 style="fill:#1f77b4;fill-opacity:1;fill-rule:nonzero;stroke:#1f77b4;stroke-width:1;stroke-linecap:butt;stroke-linejoin:round;stroke-miterlimit:4;stroke-dasharray:none;stroke-opacity:1"
                                 id="path6446" /></g></g><g
                             transform="translate(203.43479,198.94607)"
                             id="g6456"><g
                               id="g6454"><path
                                 d="M 0,3 C 0.795609,3 1.55874,2.683901 2.12132,2.12132 2.683901,1.55874 3,0.795609 3,0 3,-0.795609 2.683901,-1.55874 2.12132,-2.12132 1.55874,-2.683901 0.795609,-3 0,-3 -0.795609,-3 -1.55874,-2.683901 -2.12132,-2.12132 -2.683901,-1.55874 -3,-0.795609 -3,0 -3,0.795609 -2.683901,1.55874 -2.12132,2.12132 -1.55874,2.683901 -0.795609,3 0,3 Z"
                                 style="fill:#1f77b4;fill-opacity:1;fill-rule:nonzero;stroke:#1f77b4;stroke-width:1;stroke-linecap:butt;stroke-linejoin:round;stroke-miterlimit:4;stroke-dasharray:none;stroke-opacity:1"
                                 id="path6452" /></g></g><g
                             transform="translate(221.05584,32.893933)"
                             id="g6462"><g
                               id="g6460"><path
                                 d="M 0,3 C 0.795609,3 1.55874,2.683901 2.12132,2.12132 2.683901,1.55874 3,0.795609 3,0 3,-0.795609 2.683901,-1.55874 2.12132,-2.12132 1.55874,-2.683901 0.795609,-3 0,-3 -0.795609,-3 -1.55874,-2.683901 -2.12132,-2.12132 -2.683901,-1.55874 -3,-0.795609 -3,0 -3,0.795609 -2.683901,1.55874 -2.12132,2.12132 -1.55874,2.683901 -0.795609,3 0,3 Z"
                                 style="fill:#1f77b4;fill-opacity:1;fill-rule:nonzero;stroke:#1f77b4;stroke-width:1;stroke-linecap:butt;stroke-linejoin:round;stroke-miterlimit:4;stroke-dasharray:none;stroke-opacity:1"
                                 id="path6458" /></g></g><g
                             transform="translate(238.67689,99.596316)"
                             id="g6468"><g
                               id="g6466"><path
                                 d="M 0,3 C 0.795609,3 1.55874,2.683901 2.12132,2.12132 2.683901,1.55874 3,0.795609 3,0 3,-0.795609 2.683901,-1.55874 2.12132,-2.12132 1.55874,-2.683901 0.795609,-3 0,-3 -0.795609,-3 -1.55874,-2.683901 -2.12132,-2.12132 -2.683901,-1.55874 -3,-0.795609 -3,0 -3,0.795609 -2.683901,1.55874 -2.12132,2.12132 -1.55874,2.683901 -0.795609,3 0,3 Z"
                                 style="fill:#1f77b4;fill-opacity:1;fill-rule:nonzero;stroke:#1f77b4;stroke-width:1;stroke-linecap:butt;stroke-linejoin:round;stroke-miterlimit:4;stroke-dasharray:none;stroke-opacity:1"
                                 id="path6464" /></g></g><g
                             transform="translate(256.29794,212.06036)"
                             id="g6474"><g
                               id="g6472"><path
                                 d="M 0,3 C 0.795609,3 1.55874,2.683901 2.12132,2.12132 2.683901,1.55874 3,0.795609 3,0 3,-0.795609 2.683901,-1.55874 2.12132,-2.12132 1.55874,-2.683901 0.795609,-3 0,-3 -0.795609,-3 -1.55874,-2.683901 -2.12132,-2.12132 -2.683901,-1.55874 -3,-0.795609 -3,0 -3,0.795609 -2.683901,1.55874 -2.12132,2.12132 -1.55874,2.683901 -0.795609,3 0,3 Z"
                                 style="fill:#1f77b4;fill-opacity:1;fill-rule:nonzero;stroke:#1f77b4;stroke-width:1;stroke-linecap:butt;stroke-linejoin:round;stroke-miterlimit:4;stroke-dasharray:none;stroke-opacity:1"
                                 id="path6470" /></g></g><g
                             transform="translate(273.919,55.005395)"
                             id="g6480"><g
                               id="g6478"><path
                                 d="M 0,3 C 0.795609,3 1.55874,2.683901 2.12132,2.12132 2.683901,1.55874 3,0.795609 3,0 3,-0.795609 2.683901,-1.55874 2.12132,-2.12132 1.55874,-2.683901 0.795609,-3 0,-3 -0.795609,-3 -1.55874,-2.683901 -2.12132,-2.12132 -2.683901,-1.55874 -3,-0.795609 -3,0 -3,0.795609 -2.683901,1.55874 -2.12132,2.12132 -1.55874,2.683901 -0.795609,3 0,3 Z"
                                 style="fill:#1f77b4;fill-opacity:1;fill-rule:nonzero;stroke:#1f77b4;stroke-width:1;stroke-linecap:butt;stroke-linejoin:round;stroke-miterlimit:4;stroke-dasharray:none;stroke-opacity:1"
                                 id="path6476" /></g></g><g
                             transform="translate(291.54005,68.717871)"
                             id="g6486"><g
                               id="g6484"><path
                                 d="M 0,3 C 0.795609,3 1.55874,2.683901 2.12132,2.12132 2.683901,1.55874 3,0.795609 3,0 3,-0.795609 2.683901,-1.55874 2.12132,-2.12132 1.55874,-2.683901 0.795609,-3 0,-3 -0.795609,-3 -1.55874,-2.683901 -2.12132,-2.12132 -2.683901,-1.55874 -3,-0.795609 -3,0 -3,0.795609 -2.683901,1.55874 -2.12132,2.12132 -1.55874,2.683901 -0.795609,3 0,3 Z"
                                 style="fill:#1f77b4;fill-opacity:1;fill-rule:nonzero;stroke:#1f77b4;stroke-width:1;stroke-linecap:butt;stroke-linejoin:round;stroke-miterlimit:4;stroke-dasharray:none;stroke-opacity:1"
                                 id="path6482" /></g></g><g
                             transform="translate(309.1611,214.75636)"
                             id="g6492"><g
                               id="g6490"><path
                                 d="M 0,3 C 0.795609,3 1.55874,2.683901 2.12132,2.12132 2.683901,1.55874 3,0.795609 3,0 3,-0.795609 2.683901,-1.55874 2.12132,-2.12132 1.55874,-2.683901 0.795609,-3 0,-3 -0.795609,-3 -1.55874,-2.683901 -2.12132,-2.12132 -2.683901,-1.55874 -3,-0.795609 -3,0 -3,0.795609 -2.683901,1.55874 -2.12132,2.12132 -1.55874,2.683901 -0.795609,3 0,3 Z"
                                 style="fill:#1f77b4;fill-opacity:1;fill-rule:nonzero;stroke:#1f77b4;stroke-width:1;stroke-linecap:butt;stroke-linejoin:round;stroke-miterlimit:4;stroke-dasharray:none;stroke-opacity:1"
                                 id="path6488" /></g></g><g
                             transform="translate(326.78215,83.717899)"
                             id="g6498"><g
                               id="g6496"><path
                                 d="M 0,3 C 0.795609,3 1.55874,2.683901 2.12132,2.12132 2.683901,1.55874 3,0.795609 3,0 3,-0.795609 2.683901,-1.55874 2.12132,-2.12132 1.55874,-2.683901 0.795609,-3 0,-3 -0.795609,-3 -1.55874,-2.683901 -2.12132,-2.12132 -2.683901,-1.55874 -3,-0.795609 -3,0 -3,0.795609 -2.683901,1.55874 -2.12132,2.12132 -1.55874,2.683901 -0.795609,3 0,3 Z"
                                 style="fill:#1f77b4;fill-opacity:1;fill-rule:nonzero;stroke:#1f77b4;stroke-width:1;stroke-linecap:butt;stroke-linejoin:round;stroke-miterlimit:4;stroke-dasharray:none;stroke-opacity:1"
                                 id="path6494" /></g></g><g
                             transform="translate(344.40321,42.95451)"
                             id="g6504"><g
                               id="g6502"><path
                                 d="M 0,3 C 0.795609,3 1.55874,2.683901 2.12132,2.12132 2.683901,1.55874 3,0.795609 3,0 3,-0.795609 2.683901,-1.55874 2.12132,-2.12132 1.55874,-2.683901 0.795609,-3 0,-3 -0.795609,-3 -1.55874,-2.683901 -2.12132,-2.12132 -2.683901,-1.55874 -3,-0.795609 -3,0 -3,0.795609 -2.683901,1.55874 -2.12132,2.12132 -1.55874,2.683901 -0.795609,3 0,3 Z"
                                 style="fill:#1f77b4;fill-opacity:1;fill-rule:nonzero;stroke:#1f77b4;stroke-width:1;stroke-linecap:butt;stroke-linejoin:round;stroke-miterlimit:4;stroke-dasharray:none;stroke-opacity:1"
                                 id="path6500" /></g></g><g
                             transform="translate(362.02426,206.74191)"
                             id="g6510"><g
                               id="g6508"><path
                                 d="M 0,3 C 0.795609,3 1.55874,2.683901 2.12132,2.12132 2.683901,1.55874 3,0.795609 3,0 3,-0.795609 2.683901,-1.55874 2.12132,-2.12132 1.55874,-2.683901 0.795609,-3 0,-3 -0.795609,-3 -1.55874,-2.683901 -2.12132,-2.12132 -2.683901,-1.55874 -3,-0.795609 -3,0 -3,0.795609 -2.683901,1.55874 -2.12132,2.12132 -1.55874,2.683901 -0.795609,3 0,3 Z"
                                 style="fill:#1f77b4;fill-opacity:1;fill-rule:nonzero;stroke:#1f77b4;stroke-width:1;stroke-linecap:butt;stroke-linejoin:round;stroke-miterlimit:4;stroke-dasharray:none;stroke-opacity:1"
                                 id="path6506" /></g></g><g
                             transform="translate(379.64531,115.92)"
                             id="g6516"><g
                               id="g6514"><path
                                 d="M 0,3 C 0.795609,3 1.55874,2.683901 2.12132,2.12132 2.683901,1.55874 3,0.795609 3,0 3,-0.795609 2.683901,-1.55874 2.12132,-2.12132 1.55874,-2.683901 0.795609,-3 0,-3 -0.795609,-3 -1.55874,-2.683901 -2.12132,-2.12132 -2.683901,-1.55874 -3,-0.795609 -3,0 -3,0.795609 -2.683901,1.55874 -2.12132,2.12132 -1.55874,2.683901 -0.795609,3 0,3 Z"
                                 style="fill:#1f77b4;fill-opacity:1;fill-rule:nonzero;stroke:#1f77b4;stroke-width:1;stroke-linecap:butt;stroke-linejoin:round;stroke-miterlimit:4;stroke-dasharray:none;stroke-opacity:1"
                                 id="path6512" /></g></g></g></g></g></g></g><g
                   id="g6522"><g
                     id="g6524"><path
                       d="M 44.845313,224.64 V 7.2"
                       style="fill:none;stroke:#000000;stroke-width:0.8;stroke-linecap:butt;stroke-linejoin:round;stroke-miterlimit:4;stroke-dasharray:none;stroke-opacity:1"
                       id="path6526" /></g></g><g
                   id="g6528"><g
                     id="g6530"><path
                       d="M 379.64531,224.64 V 7.2"
                       style="fill:none;stroke:#000000;stroke-width:0.8;stroke-linecap:butt;stroke-linejoin:round;stroke-miterlimit:4;stroke-dasharray:none;stroke-opacity:1"
                       id="path6532" /></g></g><g
                   id="g6534"><g
                     id="g6536"><path
                       d="M 44.845313,224.64 H 379.64531"
                       style="fill:none;stroke:#000000;stroke-width:0.8;stroke-linecap:butt;stroke-linejoin:round;stroke-miterlimit:4;stroke-dasharray:none;stroke-opacity:1"
                       id="path6538" /></g></g><g
                   id="g6540"><g
                     id="g6542"><path
                       d="M 44.845313,7.2 H 379.64531"
                       style="fill:none;stroke:#000000;stroke-width:0.8;stroke-linecap:butt;stroke-linejoin:round;stroke-miterlimit:4;stroke-dasharray:none;stroke-opacity:1"
                       id="path6544" /></g></g></g></g></g></g></g></g></g></svg>
