<?xml version="1.0" encoding="UTF-8" standalone="no"?>
<svg
   xmlns:dc="http://purl.org/dc/elements/1.1/"
   xmlns:cc="http://creativecommons.org/ns#"
   xmlns:rdf="http://www.w3.org/1999/02/22-rdf-syntax-ns#"
   xmlns:svg="http://www.w3.org/2000/svg"
   xmlns="http://www.w3.org/2000/svg"
   xmlns:sodipodi="http://sodipodi.sourceforge.net/DTD/sodipodi-0.dtd"
   xmlns:inkscape="http://www.inkscape.org/namespaces/inkscape"
   version="1.1"
   id="svg846"
   xml:space="preserve"
   width="689"
   height="447"
   viewBox="0 0 689 447"
   sodipodi:docname="Sin_continuo.svg"
   inkscape:version="1.0.1 (3bc2e813f5, 2020-09-07)"><metadata
     id="metadata852"><rdf:RDF><cc:Work
         rdf:about=""><dc:format>image/svg+xml</dc:format><dc:type
           rdf:resource="http://purl.org/dc/dcmitype/StillImage" /><dc:title></dc:title></cc:Work></rdf:RDF></metadata><defs
     id="defs850"><marker
       style="overflow:visible;"
       id="Arrow1Lend"
       refX="0.0"
       refY="0.0"
       orient="auto"
       inkscape:stockid="Arrow1Lend"
       inkscape:isstock="true"><path
         transform="scale(0.8) rotate(180) translate(12.5,0)"
         style="fill-rule:evenodd;stroke:#d25224;stroke-width:1pt;stroke-opacity:1;fill:#d25224;fill-opacity:1"
         d="M 0.0,0.0 L 5.0,-5.0 L -12.5,0.0 L 5.0,5.0 L 0.0,0.0 z "
         id="path2161" /></marker><marker
       style="overflow:visible"
       id="Arrow1Lstart"
       refX="0.0"
       refY="0.0"
       orient="auto"
       inkscape:stockid="Arrow1Lstart"
       inkscape:isstock="true"><path
         transform="scale(0.8) translate(12.5,0)"
         style="fill-rule:evenodd;stroke:#d25224;stroke-width:1pt;stroke-opacity:1;fill:#d25224;fill-opacity:1"
         d="M 0.0,0.0 L 5.0,-5.0 L -12.5,0.0 L 5.0,5.0 L 0.0,0.0 z "
         id="path2158" /></marker><inkscape:path-effect
       effect="powerstroke"
       id="path-effect2125"
       is_visible="true"
       lpeversion="1"
       offset_points="0,0.08023473"
       sort_points="true"
       interpolator_type="CubicBezierJohan"
       interpolator_beta="0.2"
       start_linecap_type="zerowidth"
       linejoin_type="extrp_arc"
       miter_limit="4"
       scale_width="1"
       end_linecap_type="zerowidth" /><inkscape:path-effect
       effect="bspline"
       id="path-effect2123"
       is_visible="true"
       lpeversion="1"
       weight="33.333333"
       steps="2"
       helper_size="0"
       apply_no_weight="true"
       apply_with_weight="true"
       only_selected="false" /><clipPath
       clipPathUnits="userSpaceOnUse"
       id="clipPath864"><path
         d="M 0,0 H 816 V 1056 H 0 Z"
         id="path862" /></clipPath><clipPath
       clipPathUnits="userSpaceOnUse"
       id="clipPath1518"><path
         d="M 0,0 H 397.97812 V 515.03051 H 0 Z"
         id="path1516" /></clipPath><mask
       maskUnits="userSpaceOnUse"
       x="0"
       y="0"
       width="1"
       height="1"
       id="mask1520"><g
         id="g1530"><g
           clip-path="url(#clipPath1518)"
           id="g1528"><g
             id="g1526"><g
               id="g1524"><path
                 d="M 44.845313,7.2 H 379.64531 V 224.64 H 44.845313 Z"
                 style="fill:#ffffff;fill-opacity:1;fill-rule:nonzero;stroke:none"
                 id="path1522" /></g></g></g></g></mask></defs><sodipodi:namedview
     pagecolor="#ffffff"
     bordercolor="#666666"
     borderopacity="1"
     objecttolerance="10"
     gridtolerance="10"
     guidetolerance="10"
     inkscape:pageopacity="0"
     inkscape:pageshadow="2"
     inkscape:window-width="1920"
     inkscape:window-height="1017"
     id="namedview848"
     showgrid="false"
     inkscape:zoom="4.5533391"
     inkscape:cx="208.17507"
     inkscape:cy="382.99666"
     inkscape:window-x="-8"
     inkscape:window-y="-8"
     inkscape:window-maximized="1"
     inkscape:current-layer="g854" /><g
     id="g854"
     inkscape:groupmode="layer"
     inkscape:label="teste"
     transform="matrix(1.3333333,0,0,1.3333333,0,2.64e-5)"><g
       id="g856"
       transform="matrix(0.75,0,0,0.75,-67.862287,-10.541715)"><g
         id="g858"><g
           id="g860"
           clip-path="url(#clipPath864)"><g
             id="g866"
             transform="scale(2.050364)"><g
               id="g868"><g
                 id="g870"><g
                   id="g872" /></g><g
                 id="g874"><g
                   id="g876"><g
                     id="g878"><path
                       d="M 44.845313,224.64 H 379.64531 V 7.2 H 44.845313 Z"
                       style="fill:#ffffff;fill-opacity:1;fill-rule:nonzero;stroke:none"
                       id="path880" /></g></g><g
                   id="g882"><g
                     id="g884"><g
                       id="g886"><g
                         id="g888"><g
                           id="g890"
                           transform="translate(44.845313,224.64)"><g
                             id="g892"><path
                               d="M 0,0 V 3.5"
                               style="fill:#000000;fill-opacity:1;fill-rule:nonzero;stroke:#000000;stroke-width:0.8;stroke-linecap:butt;stroke-linejoin:round;stroke-miterlimit:4;stroke-dasharray:none;stroke-opacity:1"
                               id="path894" /></g></g></g></g><g
                       id="g896"><g
                         id="g898"
                         transform="matrix(0.1,0,0,-0.1,33.7125,239.23844)"><g
                           id="g900"><g
                             id="g902"><path
                               d="m 31.78125,66.40625 c -5.072917,0 -8.890625,-2.5 -11.453125,-7.5 C 17.776042,53.916667 16.5,46.40625 16.5,36.375 c 0,-9.989583 1.276042,-17.484375 3.828125,-22.484375 2.5625,-5 6.380208,-7.5 11.453125,-7.5 5.114583,0 8.947917,2.5 11.5,7.5 2.5625,5 3.84375,12.494792 3.84375,22.484375 0,10.03125 -1.28125,17.541667 -3.84375,22.53125 -2.552083,5 -6.385417,7.5 -11.5,7.5 z m 0,7.8125 c 8.177083,0 14.421875,-3.234375 18.734375,-9.703125 4.3125,-6.458333 6.46875,-15.838542 6.46875,-28.140625 0,-12.270833 -2.15625,-21.640625 -6.46875,-28.109375 -4.3125,-6.458333 -10.557292,-9.6875 -18.734375,-9.6875 -8.166667,0 -14.40625,3.229167 -18.71875,9.6875 C 8.75,14.734375 6.59375,24.104167 6.59375,36.375 c 0,12.302083 2.15625,21.682292 6.46875,28.140625 4.3125,6.46875 10.552083,9.703125 18.71875,9.703125 z"
                               style="fill:#000000;fill-opacity:1;fill-rule:nonzero;stroke:none"
                               id="path904" /></g></g><g
                           id="g906"
                           transform="translate(63.623047)"><g
                             id="g908"><path
                               d="M 10.6875,12.40625 H 21 V 0 H 10.6875 Z"
                               style="fill:#000000;fill-opacity:1;fill-rule:nonzero;stroke:none"
                               id="path910" /></g></g><g
                           id="g912"
                           transform="translate(95.410156)"><g
                             id="g914"><path
                               d="m 31.78125,66.40625 c -5.072917,0 -8.890625,-2.5 -11.453125,-7.5 C 17.776042,53.916667 16.5,46.40625 16.5,36.375 c 0,-9.989583 1.276042,-17.484375 3.828125,-22.484375 2.5625,-5 6.380208,-7.5 11.453125,-7.5 5.114583,0 8.947917,2.5 11.5,7.5 2.5625,5 3.84375,12.494792 3.84375,22.484375 0,10.03125 -1.28125,17.541667 -3.84375,22.53125 -2.552083,5 -6.385417,7.5 -11.5,7.5 z m 0,7.8125 c 8.177083,0 14.421875,-3.234375 18.734375,-9.703125 4.3125,-6.458333 6.46875,-15.838542 6.46875,-28.140625 0,-12.270833 -2.15625,-21.640625 -6.46875,-28.109375 -4.3125,-6.458333 -10.557292,-9.6875 -18.734375,-9.6875 -8.166667,0 -14.40625,3.229167 -18.71875,9.6875 C 8.75,14.734375 6.59375,24.104167 6.59375,36.375 c 0,12.302083 2.15625,21.682292 6.46875,28.140625 4.3125,6.46875 10.552083,9.703125 18.71875,9.703125 z"
                               style="fill:#000000;fill-opacity:1;fill-rule:nonzero;stroke:none"
                               id="path916" /></g></g><g
                           id="g918"
                           transform="translate(159.0332)"><g
                             id="g920"><path
                               d="m 31.78125,66.40625 c -5.072917,0 -8.890625,-2.5 -11.453125,-7.5 C 17.776042,53.916667 16.5,46.40625 16.5,36.375 c 0,-9.989583 1.276042,-17.484375 3.828125,-22.484375 2.5625,-5 6.380208,-7.5 11.453125,-7.5 5.114583,0 8.947917,2.5 11.5,7.5 2.5625,5 3.84375,12.494792 3.84375,22.484375 0,10.03125 -1.28125,17.541667 -3.84375,22.53125 -2.552083,5 -6.385417,7.5 -11.5,7.5 z m 0,7.8125 c 8.177083,0 14.421875,-3.234375 18.734375,-9.703125 4.3125,-6.458333 6.46875,-15.838542 6.46875,-28.140625 0,-12.270833 -2.15625,-21.640625 -6.46875,-28.109375 -4.3125,-6.458333 -10.557292,-9.6875 -18.734375,-9.6875 -8.166667,0 -14.40625,3.229167 -18.71875,9.6875 C 8.75,14.734375 6.59375,24.104167 6.59375,36.375 c 0,12.302083 2.15625,21.682292 6.46875,28.140625 4.3125,6.46875 10.552083,9.703125 18.71875,9.703125 z"
                               style="fill:#000000;fill-opacity:1;fill-rule:nonzero;stroke:none"
                               id="path922" /></g></g></g></g></g><g
                     id="g924"><g
                       id="g926"><g
                         id="g928"><g
                           id="g930"
                           transform="translate(111.80531,224.64)"><g
                             id="g932"><path
                               d="M 0,0 V 3.5"
                               style="fill:#000000;fill-opacity:1;fill-rule:nonzero;stroke:#000000;stroke-width:0.8;stroke-linecap:butt;stroke-linejoin:round;stroke-miterlimit:4;stroke-dasharray:none;stroke-opacity:1"
                               id="path934" /></g></g></g></g><g
                       id="g936"><g
                         id="g938"
                         transform="matrix(0.1,0,0,-0.1,100.6725,239.23844)"><g
                           id="g940"><g
                             id="g942"><path
                               d="m 31.78125,66.40625 c -5.072917,0 -8.890625,-2.5 -11.453125,-7.5 C 17.776042,53.916667 16.5,46.40625 16.5,36.375 c 0,-9.989583 1.276042,-17.484375 3.828125,-22.484375 2.5625,-5 6.380208,-7.5 11.453125,-7.5 5.114583,0 8.947917,2.5 11.5,7.5 2.5625,5 3.84375,12.494792 3.84375,22.484375 0,10.03125 -1.28125,17.541667 -3.84375,22.53125 -2.552083,5 -6.385417,7.5 -11.5,7.5 z m 0,7.8125 c 8.177083,0 14.421875,-3.234375 18.734375,-9.703125 4.3125,-6.458333 6.46875,-15.838542 6.46875,-28.140625 0,-12.270833 -2.15625,-21.640625 -6.46875,-28.109375 -4.3125,-6.458333 -10.557292,-9.6875 -18.734375,-9.6875 -8.166667,0 -14.40625,3.229167 -18.71875,9.6875 C 8.75,14.734375 6.59375,24.104167 6.59375,36.375 c 0,12.302083 2.15625,21.682292 6.46875,28.140625 4.3125,6.46875 10.552083,9.703125 18.71875,9.703125 z"
                               style="fill:#000000;fill-opacity:1;fill-rule:nonzero;stroke:none"
                               id="path944" /></g></g><g
                           id="g946"
                           transform="translate(63.623047)"><g
                             id="g948"><path
                               d="M 10.6875,12.40625 H 21 V 0 H 10.6875 Z"
                               style="fill:#000000;fill-opacity:1;fill-rule:nonzero;stroke:none"
                               id="path950" /></g></g><g
                           id="g952"
                           transform="translate(95.410156)"><g
                             id="g954"><path
                               d="m 31.78125,66.40625 c -5.072917,0 -8.890625,-2.5 -11.453125,-7.5 C 17.776042,53.916667 16.5,46.40625 16.5,36.375 c 0,-9.989583 1.276042,-17.484375 3.828125,-22.484375 2.5625,-5 6.380208,-7.5 11.453125,-7.5 5.114583,0 8.947917,2.5 11.5,7.5 2.5625,5 3.84375,12.494792 3.84375,22.484375 0,10.03125 -1.28125,17.541667 -3.84375,22.53125 -2.552083,5 -6.385417,7.5 -11.5,7.5 z m 0,7.8125 c 8.177083,0 14.421875,-3.234375 18.734375,-9.703125 4.3125,-6.458333 6.46875,-15.838542 6.46875,-28.140625 0,-12.270833 -2.15625,-21.640625 -6.46875,-28.109375 -4.3125,-6.458333 -10.557292,-9.6875 -18.734375,-9.6875 -8.166667,0 -14.40625,3.229167 -18.71875,9.6875 C 8.75,14.734375 6.59375,24.104167 6.59375,36.375 c 0,12.302083 2.15625,21.682292 6.46875,28.140625 4.3125,6.46875 10.552083,9.703125 18.71875,9.703125 z"
                               style="fill:#000000;fill-opacity:1;fill-rule:nonzero;stroke:none"
                               id="path956" /></g></g><g
                           id="g958"
                           transform="translate(159.0332)"><g
                             id="g960"><path
                               d="M 19.1875,8.296875 H 53.609375 V 0 H 7.328125 v 8.296875 c 3.739583,3.875 8.838542,9.072917 15.296875,15.59375 6.46875,6.53125 10.53125,10.744792 12.1875,12.640625 3.15625,3.541667 5.359375,6.541667 6.609375,9 1.260417,2.458333 1.890625,4.875 1.890625,7.25 0,3.875 -1.359375,7.03125 -4.078125,9.46875 -2.71875,2.447917 -6.260417,3.671875 -10.625,3.671875 -3.09375,0 -6.359375,-0.536458 -9.796875,-1.609375 -3.427083,-1.072917 -7.09375,-2.703125 -11,-4.890625 v 9.96875 c 3.96875,1.59375 7.677083,2.796875 11.125,3.609375 3.458333,0.8125 6.619792,1.21875 9.484375,1.21875 7.552083,0 13.572917,-1.890625 18.0625,-5.671875 4.489583,-3.770833 6.734375,-8.8125 6.734375,-15.125 0,-3 -0.5625,-5.84375 -1.6875,-8.53125 -1.114583,-2.677083 -3.15625,-5.838542 -6.125,-9.484375 -0.8125,-0.947917 -3.401042,-3.677083 -7.765625,-8.1875 C 33.286458,22.708333 27.135417,16.401042 19.1875,8.296875 Z"
                               style="fill:#000000;fill-opacity:1;fill-rule:nonzero;stroke:none"
                               id="path962" /></g></g></g></g></g><g
                     id="g964"><g
                       id="g966"><g
                         id="g968"><g
                           id="g970"
                           transform="translate(178.76531,224.64)"><g
                             id="g972"><path
                               d="M 0,0 V 3.5"
                               style="fill:#000000;fill-opacity:1;fill-rule:nonzero;stroke:#000000;stroke-width:0.8;stroke-linecap:butt;stroke-linejoin:round;stroke-miterlimit:4;stroke-dasharray:none;stroke-opacity:1"
                               id="path974" /></g></g></g></g><g
                       id="g976"><g
                         id="g978"
                         transform="matrix(0.1,0,0,-0.1,167.6325,239.23844)"><g
                           id="g980"><g
                             id="g982"><path
                               d="m 31.78125,66.40625 c -5.072917,0 -8.890625,-2.5 -11.453125,-7.5 C 17.776042,53.916667 16.5,46.40625 16.5,36.375 c 0,-9.989583 1.276042,-17.484375 3.828125,-22.484375 2.5625,-5 6.380208,-7.5 11.453125,-7.5 5.114583,0 8.947917,2.5 11.5,7.5 2.5625,5 3.84375,12.494792 3.84375,22.484375 0,10.03125 -1.28125,17.541667 -3.84375,22.53125 -2.552083,5 -6.385417,7.5 -11.5,7.5 z m 0,7.8125 c 8.177083,0 14.421875,-3.234375 18.734375,-9.703125 4.3125,-6.458333 6.46875,-15.838542 6.46875,-28.140625 0,-12.270833 -2.15625,-21.640625 -6.46875,-28.109375 -4.3125,-6.458333 -10.557292,-9.6875 -18.734375,-9.6875 -8.166667,0 -14.40625,3.229167 -18.71875,9.6875 C 8.75,14.734375 6.59375,24.104167 6.59375,36.375 c 0,12.302083 2.15625,21.682292 6.46875,28.140625 4.3125,6.46875 10.552083,9.703125 18.71875,9.703125 z"
                               style="fill:#000000;fill-opacity:1;fill-rule:nonzero;stroke:none"
                               id="path984" /></g></g><g
                           id="g986"
                           transform="translate(63.623047)"><g
                             id="g988"><path
                               d="M 10.6875,12.40625 H 21 V 0 H 10.6875 Z"
                               style="fill:#000000;fill-opacity:1;fill-rule:nonzero;stroke:none"
                               id="path990" /></g></g><g
                           id="g992"
                           transform="translate(95.410156)"><g
                             id="g994"><path
                               d="m 31.78125,66.40625 c -5.072917,0 -8.890625,-2.5 -11.453125,-7.5 C 17.776042,53.916667 16.5,46.40625 16.5,36.375 c 0,-9.989583 1.276042,-17.484375 3.828125,-22.484375 2.5625,-5 6.380208,-7.5 11.453125,-7.5 5.114583,0 8.947917,2.5 11.5,7.5 2.5625,5 3.84375,12.494792 3.84375,22.484375 0,10.03125 -1.28125,17.541667 -3.84375,22.53125 -2.552083,5 -6.385417,7.5 -11.5,7.5 z m 0,7.8125 c 8.177083,0 14.421875,-3.234375 18.734375,-9.703125 4.3125,-6.458333 6.46875,-15.838542 6.46875,-28.140625 0,-12.270833 -2.15625,-21.640625 -6.46875,-28.109375 -4.3125,-6.458333 -10.557292,-9.6875 -18.734375,-9.6875 -8.166667,0 -14.40625,3.229167 -18.71875,9.6875 C 8.75,14.734375 6.59375,24.104167 6.59375,36.375 c 0,12.302083 2.15625,21.682292 6.46875,28.140625 4.3125,6.46875 10.552083,9.703125 18.71875,9.703125 z"
                               style="fill:#000000;fill-opacity:1;fill-rule:nonzero;stroke:none"
                               id="path996" /></g></g><g
                           id="g998"
                           transform="translate(159.0332)"><g
                             id="g1000"><path
                               d="M 37.796875,64.3125 12.890625,25.390625 h 24.90625 z m -2.59375,8.59375 h 12.40625 V 25.390625 h 10.40625 V 17.1875 H 47.609375 V 0 h -9.8125 V 17.1875 H 4.890625 v 9.515625 z"
                               style="fill:#000000;fill-opacity:1;fill-rule:nonzero;stroke:none"
                               id="path1002" /></g></g></g></g></g><g
                     id="g1004"><g
                       id="g1006"><g
                         id="g1008"><g
                           id="g1010"
                           transform="translate(245.72531,224.64)"><g
                             id="g1012"><path
                               d="M 0,0 V 3.5"
                               style="fill:#000000;fill-opacity:1;fill-rule:nonzero;stroke:#000000;stroke-width:0.8;stroke-linecap:butt;stroke-linejoin:round;stroke-miterlimit:4;stroke-dasharray:none;stroke-opacity:1"
                               id="path1014" /></g></g></g></g><g
                       id="g1016"><g
                         id="g1018"
                         transform="matrix(0.1,0,0,-0.1,234.5925,239.23844)"><g
                           id="g1020"><g
                             id="g1022"><path
                               d="m 31.78125,66.40625 c -5.072917,0 -8.890625,-2.5 -11.453125,-7.5 C 17.776042,53.916667 16.5,46.40625 16.5,36.375 c 0,-9.989583 1.276042,-17.484375 3.828125,-22.484375 2.5625,-5 6.380208,-7.5 11.453125,-7.5 5.114583,0 8.947917,2.5 11.5,7.5 2.5625,5 3.84375,12.494792 3.84375,22.484375 0,10.03125 -1.28125,17.541667 -3.84375,22.53125 -2.552083,5 -6.385417,7.5 -11.5,7.5 z m 0,7.8125 c 8.177083,0 14.421875,-3.234375 18.734375,-9.703125 4.3125,-6.458333 6.46875,-15.838542 6.46875,-28.140625 0,-12.270833 -2.15625,-21.640625 -6.46875,-28.109375 -4.3125,-6.458333 -10.557292,-9.6875 -18.734375,-9.6875 -8.166667,0 -14.40625,3.229167 -18.71875,9.6875 C 8.75,14.734375 6.59375,24.104167 6.59375,36.375 c 0,12.302083 2.15625,21.682292 6.46875,28.140625 4.3125,6.46875 10.552083,9.703125 18.71875,9.703125 z"
                               style="fill:#000000;fill-opacity:1;fill-rule:nonzero;stroke:none"
                               id="path1024" /></g></g><g
                           id="g1026"
                           transform="translate(63.623047)"><g
                             id="g1028"><path
                               d="M 10.6875,12.40625 H 21 V 0 H 10.6875 Z"
                               style="fill:#000000;fill-opacity:1;fill-rule:nonzero;stroke:none"
                               id="path1030" /></g></g><g
                           id="g1032"
                           transform="translate(95.410156)"><g
                             id="g1034"><path
                               d="m 31.78125,66.40625 c -5.072917,0 -8.890625,-2.5 -11.453125,-7.5 C 17.776042,53.916667 16.5,46.40625 16.5,36.375 c 0,-9.989583 1.276042,-17.484375 3.828125,-22.484375 2.5625,-5 6.380208,-7.5 11.453125,-7.5 5.114583,0 8.947917,2.5 11.5,7.5 2.5625,5 3.84375,12.494792 3.84375,22.484375 0,10.03125 -1.28125,17.541667 -3.84375,22.53125 -2.552083,5 -6.385417,7.5 -11.5,7.5 z m 0,7.8125 c 8.177083,0 14.421875,-3.234375 18.734375,-9.703125 4.3125,-6.458333 6.46875,-15.838542 6.46875,-28.140625 0,-12.270833 -2.15625,-21.640625 -6.46875,-28.109375 -4.3125,-6.458333 -10.557292,-9.6875 -18.734375,-9.6875 -8.166667,0 -14.40625,3.229167 -18.71875,9.6875 C 8.75,14.734375 6.59375,24.104167 6.59375,36.375 c 0,12.302083 2.15625,21.682292 6.46875,28.140625 4.3125,6.46875 10.552083,9.703125 18.71875,9.703125 z"
                               style="fill:#000000;fill-opacity:1;fill-rule:nonzero;stroke:none"
                               id="path1036" /></g></g><g
                           id="g1038"
                           transform="translate(159.0332)"><g
                             id="g1040"><path
                               d="m 33.015625,40.375 c -4.427083,0 -7.9375,-1.515625 -10.53125,-4.546875 -2.583333,-3.020833 -3.875,-7.166667 -3.875,-12.4375 0,-5.239583 1.291667,-9.385417 3.875,-12.4375 2.59375,-3.041667 6.104167,-4.5625 10.53125,-4.5625 4.427083,0 7.932292,1.520833 10.515625,4.5625 2.583333,3.052083 3.875,7.197917 3.875,12.4375 0,5.270833 -1.291667,9.416667 -3.875,12.4375 C 40.947917,38.859375 37.442708,40.375 33.015625,40.375 Z M 52.59375,71.296875 V 62.3125 c -2.479167,1.166667 -4.979167,2.057292 -7.5,2.671875 -2.520833,0.625 -5.020833,0.9375 -7.5,0.9375 -6.510417,0 -11.484375,-2.197917 -14.921875,-6.59375 -3.427083,-4.395833 -5.385417,-11.036458 -5.875,-19.921875 1.916667,2.833333 4.322917,5.005208 7.21875,6.515625 2.90625,1.510417 6.098958,2.265625 9.578125,2.265625 7.322917,0 13.109375,-2.223958 17.359375,-6.671875 4.25,-4.4375 6.375,-10.479167 6.375,-18.125 0,-7.489583 -2.213542,-13.5 -6.640625,-18.03125 -4.427083,-4.520833 -10.317708,-6.78125 -17.671875,-6.78125 -8.4375,0 -14.885417,3.229167 -19.34375,9.6875 -4.458333,6.46875 -6.6875,15.838542 -6.6875,28.109375 0,11.520833 2.734375,20.708333 8.203125,27.5625 5.46875,6.854167 12.807292,10.28125 22.015625,10.28125 2.479167,0 4.979167,-0.244792 7.5,-0.734375 2.520833,-0.489583 5.151042,-1.21875 7.890625,-2.1875 z"
                               style="fill:#000000;fill-opacity:1;fill-rule:nonzero;stroke:none"
                               id="path1042" /></g></g></g></g></g><g
                     id="g1044"><g
                       id="g1046"><g
                         id="g1048"><g
                           id="g1050"
                           transform="translate(312.68531,224.64)"><g
                             id="g1052"><path
                               d="M 0,0 V 3.5"
                               style="fill:#000000;fill-opacity:1;fill-rule:nonzero;stroke:#000000;stroke-width:0.8;stroke-linecap:butt;stroke-linejoin:round;stroke-miterlimit:4;stroke-dasharray:none;stroke-opacity:1"
                               id="path1054" /></g></g></g></g><g
                       id="g1056"><g
                         id="g1058"
                         transform="matrix(0.1,0,0,-0.1,301.5525,239.23844)"><g
                           id="g1060"><g
                             id="g1062"><path
                               d="m 31.78125,66.40625 c -5.072917,0 -8.890625,-2.5 -11.453125,-7.5 C 17.776042,53.916667 16.5,46.40625 16.5,36.375 c 0,-9.989583 1.276042,-17.484375 3.828125,-22.484375 2.5625,-5 6.380208,-7.5 11.453125,-7.5 5.114583,0 8.947917,2.5 11.5,7.5 2.5625,5 3.84375,12.494792 3.84375,22.484375 0,10.03125 -1.28125,17.541667 -3.84375,22.53125 -2.552083,5 -6.385417,7.5 -11.5,7.5 z m 0,7.8125 c 8.177083,0 14.421875,-3.234375 18.734375,-9.703125 4.3125,-6.458333 6.46875,-15.838542 6.46875,-28.140625 0,-12.270833 -2.15625,-21.640625 -6.46875,-28.109375 -4.3125,-6.458333 -10.557292,-9.6875 -18.734375,-9.6875 -8.166667,0 -14.40625,3.229167 -18.71875,9.6875 C 8.75,14.734375 6.59375,24.104167 6.59375,36.375 c 0,12.302083 2.15625,21.682292 6.46875,28.140625 4.3125,6.46875 10.552083,9.703125 18.71875,9.703125 z"
                               style="fill:#000000;fill-opacity:1;fill-rule:nonzero;stroke:none"
                               id="path1064" /></g></g><g
                           id="g1066"
                           transform="translate(63.623047)"><g
                             id="g1068"><path
                               d="M 10.6875,12.40625 H 21 V 0 H 10.6875 Z"
                               style="fill:#000000;fill-opacity:1;fill-rule:nonzero;stroke:none"
                               id="path1070" /></g></g><g
                           id="g1072"
                           transform="translate(95.410156)"><g
                             id="g1074"><path
                               d="m 31.78125,66.40625 c -5.072917,0 -8.890625,-2.5 -11.453125,-7.5 C 17.776042,53.916667 16.5,46.40625 16.5,36.375 c 0,-9.989583 1.276042,-17.484375 3.828125,-22.484375 2.5625,-5 6.380208,-7.5 11.453125,-7.5 5.114583,0 8.947917,2.5 11.5,7.5 2.5625,5 3.84375,12.494792 3.84375,22.484375 0,10.03125 -1.28125,17.541667 -3.84375,22.53125 -2.552083,5 -6.385417,7.5 -11.5,7.5 z m 0,7.8125 c 8.177083,0 14.421875,-3.234375 18.734375,-9.703125 4.3125,-6.458333 6.46875,-15.838542 6.46875,-28.140625 0,-12.270833 -2.15625,-21.640625 -6.46875,-28.109375 -4.3125,-6.458333 -10.557292,-9.6875 -18.734375,-9.6875 -8.166667,0 -14.40625,3.229167 -18.71875,9.6875 C 8.75,14.734375 6.59375,24.104167 6.59375,36.375 c 0,12.302083 2.15625,21.682292 6.46875,28.140625 4.3125,6.46875 10.552083,9.703125 18.71875,9.703125 z"
                               style="fill:#000000;fill-opacity:1;fill-rule:nonzero;stroke:none"
                               id="path1076" /></g></g><g
                           id="g1078"
                           transform="translate(159.0332)"><g
                             id="g1080"><path
                               d="m 31.78125,34.625 c -4.6875,0 -8.375,-1.255208 -11.0625,-3.765625 -2.677083,-2.510417 -4.015625,-5.958333 -4.015625,-10.34375 0,-4.395833 1.338542,-7.848958 4.015625,-10.359375 2.6875,-2.510417 6.375,-3.765625 11.0625,-3.765625 4.6875,0 8.380208,1.260417 11.078125,3.78125 2.708333,2.53125 4.0625,5.979167 4.0625,10.34375 0,4.385417 -1.34375,7.833333 -4.03125,10.34375 C 40.213542,33.369792 36.510417,34.625 31.78125,34.625 Z m -9.859375,4.1875 C 17.692708,39.854167 14.395833,41.822917 12.03125,44.71875 9.677083,47.625 8.5,51.161458 8.5,55.328125 c 0,5.822917 2.072917,10.427083 6.21875,13.8125 4.15625,3.385417 9.84375,5.078125 17.0625,5.078125 7.260417,0 12.958333,-1.692708 17.09375,-5.078125 4.135417,-3.385417 6.203125,-7.989583 6.203125,-13.8125 0,-4.166667 -1.182292,-7.703125 -3.546875,-10.609375 -2.354167,-2.895833 -5.630208,-4.864583 -9.828125,-5.90625 4.75,-1.104167 8.447917,-3.270833 11.09375,-6.5 2.65625,-3.21875 3.984375,-7.151042 3.984375,-11.796875 0,-7.072917 -2.15625,-12.5 -6.46875,-16.28125 C 46,0.463542 39.822917,-1.421875 31.78125,-1.421875 c -8.03125,0 -14.208333,1.885417 -18.53125,5.65625 -4.3125,3.78125 -6.46875,9.208333 -6.46875,16.28125 0,4.645833 1.333333,8.578125 4,11.796875 2.677083,3.229167 6.390625,5.395833 11.140625,6.5 z M 18.3125,54.390625 c 0,-3.770833 1.177083,-6.713542 3.53125,-8.828125 2.364583,-2.114583 5.677083,-3.171875 9.9375,-3.171875 4.239583,0 7.552083,1.057292 9.9375,3.171875 2.395833,2.114583 3.59375,5.057292 3.59375,8.828125 0,3.78125 -1.197917,6.729167 -3.59375,8.84375 -2.385417,2.114583 -5.697917,3.171875 -9.9375,3.171875 -4.260417,0 -7.572917,-1.057292 -9.9375,-3.171875 -2.354167,-2.114583 -3.53125,-5.0625 -3.53125,-8.84375 z"
                               style="fill:#000000;fill-opacity:1;fill-rule:nonzero;stroke:none"
                               id="path1082" /></g></g></g></g></g><g
                     id="g1084"><g
                       id="g1086"><g
                         id="g1088"><g
                           id="g1090"
                           transform="translate(379.64531,224.64)"><g
                             id="g1092"><path
                               d="M 0,0 V 3.5"
                               style="fill:#000000;fill-opacity:1;fill-rule:nonzero;stroke:#000000;stroke-width:0.8;stroke-linecap:butt;stroke-linejoin:round;stroke-miterlimit:4;stroke-dasharray:none;stroke-opacity:1"
                               id="path1094" /></g></g></g></g><g
                       id="g1096"><g
                         id="g1098"
                         transform="matrix(0.1,0,0,-0.1,368.5125,239.23844)"><g
                           id="g1100"><g
                             id="g1102"><path
                               d="m 31.78125,66.40625 c -5.072917,0 -8.890625,-2.5 -11.453125,-7.5 C 17.776042,53.916667 16.5,46.40625 16.5,36.375 c 0,-9.989583 1.276042,-17.484375 3.828125,-22.484375 2.5625,-5 6.380208,-7.5 11.453125,-7.5 5.114583,0 8.947917,2.5 11.5,7.5 2.5625,5 3.84375,12.494792 3.84375,22.484375 0,10.03125 -1.28125,17.541667 -3.84375,22.53125 -2.552083,5 -6.385417,7.5 -11.5,7.5 z m 0,7.8125 c 8.177083,0 14.421875,-3.234375 18.734375,-9.703125 4.3125,-6.458333 6.46875,-15.838542 6.46875,-28.140625 0,-12.270833 -2.15625,-21.640625 -6.46875,-28.109375 -4.3125,-6.458333 -10.557292,-9.6875 -18.734375,-9.6875 -8.166667,0 -14.40625,3.229167 -18.71875,9.6875 C 8.75,14.734375 6.59375,24.104167 6.59375,36.375 c 0,12.302083 2.15625,21.682292 6.46875,28.140625 4.3125,6.46875 10.552083,9.703125 18.71875,9.703125 z"
                               style="fill:#000000;fill-opacity:1;fill-rule:nonzero;stroke:none"
                               id="path1104" /></g></g><g
                           id="g1106"
                           transform="translate(63.623047)"><g
                             id="g1108"><path
                               d="M 10.6875,12.40625 H 21 V 0 H 10.6875 Z"
                               style="fill:#000000;fill-opacity:1;fill-rule:nonzero;stroke:none"
                               id="path1110" /></g></g><g
                           id="g1112"
                           transform="translate(95.410156)"><g
                             id="g1114"><path
                               d="m 12.40625,8.296875 h 16.109375 v 55.625 L 10.984375,60.40625 v 8.984375 l 17.4375,3.515625 H 38.28125 V 8.296875 H 54.390625 V 0 H 12.40625 Z"
                               style="fill:#000000;fill-opacity:1;fill-rule:nonzero;stroke:none"
                               id="path1116" /></g></g><g
                           id="g1118"
                           transform="translate(159.0332)"><g
                             id="g1120"><path
                               d="m 31.78125,66.40625 c -5.072917,0 -8.890625,-2.5 -11.453125,-7.5 C 17.776042,53.916667 16.5,46.40625 16.5,36.375 c 0,-9.989583 1.276042,-17.484375 3.828125,-22.484375 2.5625,-5 6.380208,-7.5 11.453125,-7.5 5.114583,0 8.947917,2.5 11.5,7.5 2.5625,5 3.84375,12.494792 3.84375,22.484375 0,10.03125 -1.28125,17.541667 -3.84375,22.53125 -2.552083,5 -6.385417,7.5 -11.5,7.5 z m 0,7.8125 c 8.177083,0 14.421875,-3.234375 18.734375,-9.703125 4.3125,-6.458333 6.46875,-15.838542 6.46875,-28.140625 0,-12.270833 -2.15625,-21.640625 -6.46875,-28.109375 -4.3125,-6.458333 -10.557292,-9.6875 -18.734375,-9.6875 -8.166667,0 -14.40625,3.229167 -18.71875,9.6875 C 8.75,14.734375 6.59375,24.104167 6.59375,36.375 c 0,12.302083 2.15625,21.682292 6.46875,28.140625 4.3125,6.46875 10.552083,9.703125 18.71875,9.703125 z"
                               style="fill:#000000;fill-opacity:1;fill-rule:nonzero;stroke:none"
                               id="path1122" /></g></g></g></g></g></g><g
                   id="g1124"><g
                     id="g1126"><g
                       id="g1128"><g
                         id="g1130"><g
                           id="g1132"
                           transform="translate(44.845313,214.75636)"><g
                             id="g1134"><path
                               d="M 0,0 H -3.5"
                               style="fill:#000000;fill-opacity:1;fill-rule:nonzero;stroke:#000000;stroke-width:0.8;stroke-linecap:butt;stroke-linejoin:round;stroke-miterlimit:4;stroke-dasharray:none;stroke-opacity:1"
                               id="path1136" /></g></g></g></g><g
                       id="g1138"><g
                         id="g1140"
                         transform="matrix(0.1,0,0,-0.1,7.2,218.55558)"><g
                           id="g1142"><g
                             id="g1144"><path
                               d="M 10.59375,35.5 H 73.1875 V 27.203125 H 10.59375 Z"
                               style="fill:#000000;fill-opacity:1;fill-rule:nonzero;stroke:none"
                               id="path1146" /></g></g><g
                           id="g1148"
                           transform="translate(83.789062)"><g
                             id="g1150"><path
                               d="m 12.40625,8.296875 h 16.109375 v 55.625 L 10.984375,60.40625 v 8.984375 l 17.4375,3.515625 H 38.28125 V 8.296875 H 54.390625 V 0 H 12.40625 Z"
                               style="fill:#000000;fill-opacity:1;fill-rule:nonzero;stroke:none"
                               id="path1152" /></g></g><g
                           id="g1154"
                           transform="translate(147.41211)"><g
                             id="g1156"><path
                               d="M 10.6875,12.40625 H 21 V 0 H 10.6875 Z"
                               style="fill:#000000;fill-opacity:1;fill-rule:nonzero;stroke:none"
                               id="path1158" /></g></g><g
                           id="g1160"
                           transform="translate(179.19922)"><g
                             id="g1162"><path
                               d="m 31.78125,66.40625 c -5.072917,0 -8.890625,-2.5 -11.453125,-7.5 C 17.776042,53.916667 16.5,46.40625 16.5,36.375 c 0,-9.989583 1.276042,-17.484375 3.828125,-22.484375 2.5625,-5 6.380208,-7.5 11.453125,-7.5 5.114583,0 8.947917,2.5 11.5,7.5 2.5625,5 3.84375,12.494792 3.84375,22.484375 0,10.03125 -1.28125,17.541667 -3.84375,22.53125 -2.552083,5 -6.385417,7.5 -11.5,7.5 z m 0,7.8125 c 8.177083,0 14.421875,-3.234375 18.734375,-9.703125 4.3125,-6.458333 6.46875,-15.838542 6.46875,-28.140625 0,-12.270833 -2.15625,-21.640625 -6.46875,-28.109375 -4.3125,-6.458333 -10.557292,-9.6875 -18.734375,-9.6875 -8.166667,0 -14.40625,3.229167 -18.71875,9.6875 C 8.75,14.734375 6.59375,24.104167 6.59375,36.375 c 0,12.302083 2.15625,21.682292 6.46875,28.140625 4.3125,6.46875 10.552083,9.703125 18.71875,9.703125 z"
                               style="fill:#000000;fill-opacity:1;fill-rule:nonzero;stroke:none"
                               id="path1164" /></g></g><g
                           id="g1166"
                           transform="translate(242.82227)"><g
                             id="g1168"><path
                               d="m 31.78125,66.40625 c -5.072917,0 -8.890625,-2.5 -11.453125,-7.5 C 17.776042,53.916667 16.5,46.40625 16.5,36.375 c 0,-9.989583 1.276042,-17.484375 3.828125,-22.484375 2.5625,-5 6.380208,-7.5 11.453125,-7.5 5.114583,0 8.947917,2.5 11.5,7.5 2.5625,5 3.84375,12.494792 3.84375,22.484375 0,10.03125 -1.28125,17.541667 -3.84375,22.53125 -2.552083,5 -6.385417,7.5 -11.5,7.5 z m 0,7.8125 c 8.177083,0 14.421875,-3.234375 18.734375,-9.703125 4.3125,-6.458333 6.46875,-15.838542 6.46875,-28.140625 0,-12.270833 -2.15625,-21.640625 -6.46875,-28.109375 -4.3125,-6.458333 -10.557292,-9.6875 -18.734375,-9.6875 -8.166667,0 -14.40625,3.229167 -18.71875,9.6875 C 8.75,14.734375 6.59375,24.104167 6.59375,36.375 c 0,12.302083 2.15625,21.682292 6.46875,28.140625 4.3125,6.46875 10.552083,9.703125 18.71875,9.703125 z"
                               style="fill:#000000;fill-opacity:1;fill-rule:nonzero;stroke:none"
                               id="path1170" /></g></g></g></g></g><g
                     id="g1172"><g
                       id="g1174"><g
                         id="g1176"><g
                           id="g1178"
                           transform="translate(44.845313,190.04727)"><g
                             id="g1180"><path
                               d="M 0,0 H -3.5"
                               style="fill:#000000;fill-opacity:1;fill-rule:nonzero;stroke:#000000;stroke-width:0.8;stroke-linecap:butt;stroke-linejoin:round;stroke-miterlimit:4;stroke-dasharray:none;stroke-opacity:1"
                               id="path1182" /></g></g></g></g><g
                       id="g1184"><g
                         id="g1186"
                         transform="matrix(0.1,0,0,-0.1,7.2,193.84649)"><g
                           id="g1188"><g
                             id="g1190"><path
                               d="M 10.59375,35.5 H 73.1875 V 27.203125 H 10.59375 Z"
                               style="fill:#000000;fill-opacity:1;fill-rule:nonzero;stroke:none"
                               id="path1192" /></g></g><g
                           id="g1194"
                           transform="translate(83.789062)"><g
                             id="g1196"><path
                               d="m 31.78125,66.40625 c -5.072917,0 -8.890625,-2.5 -11.453125,-7.5 C 17.776042,53.916667 16.5,46.40625 16.5,36.375 c 0,-9.989583 1.276042,-17.484375 3.828125,-22.484375 2.5625,-5 6.380208,-7.5 11.453125,-7.5 5.114583,0 8.947917,2.5 11.5,7.5 2.5625,5 3.84375,12.494792 3.84375,22.484375 0,10.03125 -1.28125,17.541667 -3.84375,22.53125 -2.552083,5 -6.385417,7.5 -11.5,7.5 z m 0,7.8125 c 8.177083,0 14.421875,-3.234375 18.734375,-9.703125 4.3125,-6.458333 6.46875,-15.838542 6.46875,-28.140625 0,-12.270833 -2.15625,-21.640625 -6.46875,-28.109375 -4.3125,-6.458333 -10.557292,-9.6875 -18.734375,-9.6875 -8.166667,0 -14.40625,3.229167 -18.71875,9.6875 C 8.75,14.734375 6.59375,24.104167 6.59375,36.375 c 0,12.302083 2.15625,21.682292 6.46875,28.140625 4.3125,6.46875 10.552083,9.703125 18.71875,9.703125 z"
                               style="fill:#000000;fill-opacity:1;fill-rule:nonzero;stroke:none"
                               id="path1198" /></g></g><g
                           id="g1200"
                           transform="translate(147.41211)"><g
                             id="g1202"><path
                               d="M 10.6875,12.40625 H 21 V 0 H 10.6875 Z"
                               style="fill:#000000;fill-opacity:1;fill-rule:nonzero;stroke:none"
                               id="path1204" /></g></g><g
                           id="g1206"
                           transform="translate(179.19922)"><g
                             id="g1208"><path
                               d="m 8.203125,72.90625 h 46.875 V 68.703125 L 28.609375,0 H 18.3125 L 43.21875,64.59375 H 8.203125 Z"
                               style="fill:#000000;fill-opacity:1;fill-rule:nonzero;stroke:none"
                               id="path1210" /></g></g><g
                           id="g1212"
                           transform="translate(242.82227)"><g
                             id="g1214"><path
                               d="m 10.796875,72.90625 h 38.71875 v -8.3125 h -29.6875 V 46.734375 c 1.427083,0.489583 2.854167,0.854167 4.28125,1.09375 1.4375,0.239583 2.875,0.359375 4.3125,0.359375 C 36.557292,48.1875 43,45.958333 47.75,41.5 52.510417,37.041667 54.890625,31.005208 54.890625,23.390625 54.890625,15.546875 52.447917,9.447917 47.5625,5.09375 42.677083,0.75 35.791667,-1.421875 26.90625,-1.421875 c -3.0625,0 -6.182292,0.260417 -9.359375,0.78125 -3.166667,0.520833 -6.442708,1.302083 -9.828125,2.34375 V 11.625 c 2.927083,-1.59375 5.953125,-2.78125 9.078125,-3.5625 3.125,-0.78125 6.427083,-1.171875 9.90625,-1.171875 5.635417,0 10.09375,1.479167 13.375,4.4375 3.291667,2.958333 4.9375,6.979167 4.9375,12.0625 0,5.072917 -1.645833,9.088542 -4.9375,12.046875 -3.28125,2.96875 -7.739583,4.453125 -13.375,4.453125 -2.635417,0 -5.265625,-0.291667 -7.890625,-0.875 -2.614583,-0.583333 -5.286458,-1.494792 -8.015625,-2.734375 z"
                               style="fill:#000000;fill-opacity:1;fill-rule:nonzero;stroke:none"
                               id="path1216" /></g></g></g></g></g><g
                     id="g1218"><g
                       id="g1220"><g
                         id="g1222"><g
                           id="g1224"
                           transform="translate(44.845313,165.33818)"><g
                             id="g1226"><path
                               d="M 0,0 H -3.5"
                               style="fill:#000000;fill-opacity:1;fill-rule:nonzero;stroke:#000000;stroke-width:0.8;stroke-linecap:butt;stroke-linejoin:round;stroke-miterlimit:4;stroke-dasharray:none;stroke-opacity:1"
                               id="path1228" /></g></g></g></g><g
                       id="g1230"><g
                         id="g1232"
                         transform="matrix(0.1,0,0,-0.1,7.2,169.1374)"><g
                           id="g1234"><g
                             id="g1236"><path
                               d="M 10.59375,35.5 H 73.1875 V 27.203125 H 10.59375 Z"
                               style="fill:#000000;fill-opacity:1;fill-rule:nonzero;stroke:none"
                               id="path1238" /></g></g><g
                           id="g1240"
                           transform="translate(83.789062)"><g
                             id="g1242"><path
                               d="m 31.78125,66.40625 c -5.072917,0 -8.890625,-2.5 -11.453125,-7.5 C 17.776042,53.916667 16.5,46.40625 16.5,36.375 c 0,-9.989583 1.276042,-17.484375 3.828125,-22.484375 2.5625,-5 6.380208,-7.5 11.453125,-7.5 5.114583,0 8.947917,2.5 11.5,7.5 2.5625,5 3.84375,12.494792 3.84375,22.484375 0,10.03125 -1.28125,17.541667 -3.84375,22.53125 -2.552083,5 -6.385417,7.5 -11.5,7.5 z m 0,7.8125 c 8.177083,0 14.421875,-3.234375 18.734375,-9.703125 4.3125,-6.458333 6.46875,-15.838542 6.46875,-28.140625 0,-12.270833 -2.15625,-21.640625 -6.46875,-28.109375 -4.3125,-6.458333 -10.557292,-9.6875 -18.734375,-9.6875 -8.166667,0 -14.40625,3.229167 -18.71875,9.6875 C 8.75,14.734375 6.59375,24.104167 6.59375,36.375 c 0,12.302083 2.15625,21.682292 6.46875,28.140625 4.3125,6.46875 10.552083,9.703125 18.71875,9.703125 z"
                               style="fill:#000000;fill-opacity:1;fill-rule:nonzero;stroke:none"
                               id="path1244" /></g></g><g
                           id="g1246"
                           transform="translate(147.41211)"><g
                             id="g1248"><path
                               d="M 10.6875,12.40625 H 21 V 0 H 10.6875 Z"
                               style="fill:#000000;fill-opacity:1;fill-rule:nonzero;stroke:none"
                               id="path1250" /></g></g><g
                           id="g1252"
                           transform="translate(179.19922)"><g
                             id="g1254"><path
                               d="m 10.796875,72.90625 h 38.71875 v -8.3125 h -29.6875 V 46.734375 c 1.427083,0.489583 2.854167,0.854167 4.28125,1.09375 1.4375,0.239583 2.875,0.359375 4.3125,0.359375 C 36.557292,48.1875 43,45.958333 47.75,41.5 52.510417,37.041667 54.890625,31.005208 54.890625,23.390625 54.890625,15.546875 52.447917,9.447917 47.5625,5.09375 42.677083,0.75 35.791667,-1.421875 26.90625,-1.421875 c -3.0625,0 -6.182292,0.260417 -9.359375,0.78125 -3.166667,0.520833 -6.442708,1.302083 -9.828125,2.34375 V 11.625 c 2.927083,-1.59375 5.953125,-2.78125 9.078125,-3.5625 3.125,-0.78125 6.427083,-1.171875 9.90625,-1.171875 5.635417,0 10.09375,1.479167 13.375,4.4375 3.291667,2.958333 4.9375,6.979167 4.9375,12.0625 0,5.072917 -1.645833,9.088542 -4.9375,12.046875 -3.28125,2.96875 -7.739583,4.453125 -13.375,4.453125 -2.635417,0 -5.265625,-0.291667 -7.890625,-0.875 -2.614583,-0.583333 -5.286458,-1.494792 -8.015625,-2.734375 z"
                               style="fill:#000000;fill-opacity:1;fill-rule:nonzero;stroke:none"
                               id="path1256" /></g></g><g
                           id="g1258"
                           transform="translate(242.82227)"><g
                             id="g1260"><path
                               d="m 31.78125,66.40625 c -5.072917,0 -8.890625,-2.5 -11.453125,-7.5 C 17.776042,53.916667 16.5,46.40625 16.5,36.375 c 0,-9.989583 1.276042,-17.484375 3.828125,-22.484375 2.5625,-5 6.380208,-7.5 11.453125,-7.5 5.114583,0 8.947917,2.5 11.5,7.5 2.5625,5 3.84375,12.494792 3.84375,22.484375 0,10.03125 -1.28125,17.541667 -3.84375,22.53125 -2.552083,5 -6.385417,7.5 -11.5,7.5 z m 0,7.8125 c 8.177083,0 14.421875,-3.234375 18.734375,-9.703125 4.3125,-6.458333 6.46875,-15.838542 6.46875,-28.140625 0,-12.270833 -2.15625,-21.640625 -6.46875,-28.109375 -4.3125,-6.458333 -10.557292,-9.6875 -18.734375,-9.6875 -8.166667,0 -14.40625,3.229167 -18.71875,9.6875 C 8.75,14.734375 6.59375,24.104167 6.59375,36.375 c 0,12.302083 2.15625,21.682292 6.46875,28.140625 4.3125,6.46875 10.552083,9.703125 18.71875,9.703125 z"
                               style="fill:#000000;fill-opacity:1;fill-rule:nonzero;stroke:none"
                               id="path1262" /></g></g></g></g></g><g
                     id="g1264"><g
                       id="g1266"><g
                         id="g1268"><g
                           id="g1270"
                           transform="translate(44.845313,140.62909)"><g
                             id="g1272"><path
                               d="M 0,0 H -3.5"
                               style="fill:#000000;fill-opacity:1;fill-rule:nonzero;stroke:#000000;stroke-width:0.8;stroke-linecap:butt;stroke-linejoin:round;stroke-miterlimit:4;stroke-dasharray:none;stroke-opacity:1"
                               id="path1274" /></g></g></g></g><g
                       id="g1276"><g
                         id="g1278"
                         transform="matrix(0.1,0,0,-0.1,7.2,144.42831)"><g
                           id="g1280"><g
                             id="g1282"><path
                               d="M 10.59375,35.5 H 73.1875 V 27.203125 H 10.59375 Z"
                               style="fill:#000000;fill-opacity:1;fill-rule:nonzero;stroke:none"
                               id="path1284" /></g></g><g
                           id="g1286"
                           transform="translate(83.789062)"><g
                             id="g1288"><path
                               d="m 31.78125,66.40625 c -5.072917,0 -8.890625,-2.5 -11.453125,-7.5 C 17.776042,53.916667 16.5,46.40625 16.5,36.375 c 0,-9.989583 1.276042,-17.484375 3.828125,-22.484375 2.5625,-5 6.380208,-7.5 11.453125,-7.5 5.114583,0 8.947917,2.5 11.5,7.5 2.5625,5 3.84375,12.494792 3.84375,22.484375 0,10.03125 -1.28125,17.541667 -3.84375,22.53125 -2.552083,5 -6.385417,7.5 -11.5,7.5 z m 0,7.8125 c 8.177083,0 14.421875,-3.234375 18.734375,-9.703125 4.3125,-6.458333 6.46875,-15.838542 6.46875,-28.140625 0,-12.270833 -2.15625,-21.640625 -6.46875,-28.109375 -4.3125,-6.458333 -10.557292,-9.6875 -18.734375,-9.6875 -8.166667,0 -14.40625,3.229167 -18.71875,9.6875 C 8.75,14.734375 6.59375,24.104167 6.59375,36.375 c 0,12.302083 2.15625,21.682292 6.46875,28.140625 4.3125,6.46875 10.552083,9.703125 18.71875,9.703125 z"
                               style="fill:#000000;fill-opacity:1;fill-rule:nonzero;stroke:none"
                               id="path1290" /></g></g><g
                           id="g1292"
                           transform="translate(147.41211)"><g
                             id="g1294"><path
                               d="M 10.6875,12.40625 H 21 V 0 H 10.6875 Z"
                               style="fill:#000000;fill-opacity:1;fill-rule:nonzero;stroke:none"
                               id="path1296" /></g></g><g
                           id="g1298"
                           transform="translate(179.19922)"><g
                             id="g1300"><path
                               d="M 19.1875,8.296875 H 53.609375 V 0 H 7.328125 v 8.296875 c 3.739583,3.875 8.838542,9.072917 15.296875,15.59375 6.46875,6.53125 10.53125,10.744792 12.1875,12.640625 3.15625,3.541667 5.359375,6.541667 6.609375,9 1.260417,2.458333 1.890625,4.875 1.890625,7.25 0,3.875 -1.359375,7.03125 -4.078125,9.46875 -2.71875,2.447917 -6.260417,3.671875 -10.625,3.671875 -3.09375,0 -6.359375,-0.536458 -9.796875,-1.609375 -3.427083,-1.072917 -7.09375,-2.703125 -11,-4.890625 v 9.96875 c 3.96875,1.59375 7.677083,2.796875 11.125,3.609375 3.458333,0.8125 6.619792,1.21875 9.484375,1.21875 7.552083,0 13.572917,-1.890625 18.0625,-5.671875 4.489583,-3.770833 6.734375,-8.8125 6.734375,-15.125 0,-3 -0.5625,-5.84375 -1.6875,-8.53125 -1.114583,-2.677083 -3.15625,-5.838542 -6.125,-9.484375 -0.8125,-0.947917 -3.401042,-3.677083 -7.765625,-8.1875 C 33.286458,22.708333 27.135417,16.401042 19.1875,8.296875 Z"
                               style="fill:#000000;fill-opacity:1;fill-rule:nonzero;stroke:none"
                               id="path1302" /></g></g><g
                           id="g1304"
                           transform="translate(242.82227)"><g
                             id="g1306"><path
                               d="m 10.796875,72.90625 h 38.71875 v -8.3125 h -29.6875 V 46.734375 c 1.427083,0.489583 2.854167,0.854167 4.28125,1.09375 1.4375,0.239583 2.875,0.359375 4.3125,0.359375 C 36.557292,48.1875 43,45.958333 47.75,41.5 52.510417,37.041667 54.890625,31.005208 54.890625,23.390625 54.890625,15.546875 52.447917,9.447917 47.5625,5.09375 42.677083,0.75 35.791667,-1.421875 26.90625,-1.421875 c -3.0625,0 -6.182292,0.260417 -9.359375,0.78125 -3.166667,0.520833 -6.442708,1.302083 -9.828125,2.34375 V 11.625 c 2.927083,-1.59375 5.953125,-2.78125 9.078125,-3.5625 3.125,-0.78125 6.427083,-1.171875 9.90625,-1.171875 5.635417,0 10.09375,1.479167 13.375,4.4375 3.291667,2.958333 4.9375,6.979167 4.9375,12.0625 0,5.072917 -1.645833,9.088542 -4.9375,12.046875 -3.28125,2.96875 -7.739583,4.453125 -13.375,4.453125 -2.635417,0 -5.265625,-0.291667 -7.890625,-0.875 -2.614583,-0.583333 -5.286458,-1.494792 -8.015625,-2.734375 z"
                               style="fill:#000000;fill-opacity:1;fill-rule:nonzero;stroke:none"
                               id="path1308" /></g></g></g></g></g><g
                     id="g1310"><g
                       id="g1312"><g
                         id="g1314"><g
                           id="g1316"
                           transform="translate(44.845313,115.92)"><g
                             id="g1318"><path
                               d="M 0,0 H -3.5"
                               style="fill:#000000;fill-opacity:1;fill-rule:nonzero;stroke:#000000;stroke-width:0.8;stroke-linecap:butt;stroke-linejoin:round;stroke-miterlimit:4;stroke-dasharray:none;stroke-opacity:1"
                               id="path1320" /></g></g></g></g><g
                       id="g1322"><g
                         id="g1324"
                         transform="matrix(0.1,0,0,-0.1,15.579688,119.71922)"><g
                           id="g1326"><g
                             id="g1328"><path
                               d="m 31.78125,66.40625 c -5.072917,0 -8.890625,-2.5 -11.453125,-7.5 C 17.776042,53.916667 16.5,46.40625 16.5,36.375 c 0,-9.989583 1.276042,-17.484375 3.828125,-22.484375 2.5625,-5 6.380208,-7.5 11.453125,-7.5 5.114583,0 8.947917,2.5 11.5,7.5 2.5625,5 3.84375,12.494792 3.84375,22.484375 0,10.03125 -1.28125,17.541667 -3.84375,22.53125 -2.552083,5 -6.385417,7.5 -11.5,7.5 z m 0,7.8125 c 8.177083,0 14.421875,-3.234375 18.734375,-9.703125 4.3125,-6.458333 6.46875,-15.838542 6.46875,-28.140625 0,-12.270833 -2.15625,-21.640625 -6.46875,-28.109375 -4.3125,-6.458333 -10.557292,-9.6875 -18.734375,-9.6875 -8.166667,0 -14.40625,3.229167 -18.71875,9.6875 C 8.75,14.734375 6.59375,24.104167 6.59375,36.375 c 0,12.302083 2.15625,21.682292 6.46875,28.140625 4.3125,6.46875 10.552083,9.703125 18.71875,9.703125 z"
                               style="fill:#000000;fill-opacity:1;fill-rule:nonzero;stroke:none"
                               id="path1330" /></g></g><g
                           id="g1332"
                           transform="translate(63.623047)"><g
                             id="g1334"><path
                               d="M 10.6875,12.40625 H 21 V 0 H 10.6875 Z"
                               style="fill:#000000;fill-opacity:1;fill-rule:nonzero;stroke:none"
                               id="path1336" /></g></g><g
                           id="g1338"
                           transform="translate(95.410156)"><g
                             id="g1340"><path
                               d="m 31.78125,66.40625 c -5.072917,0 -8.890625,-2.5 -11.453125,-7.5 C 17.776042,53.916667 16.5,46.40625 16.5,36.375 c 0,-9.989583 1.276042,-17.484375 3.828125,-22.484375 2.5625,-5 6.380208,-7.5 11.453125,-7.5 5.114583,0 8.947917,2.5 11.5,7.5 2.5625,5 3.84375,12.494792 3.84375,22.484375 0,10.03125 -1.28125,17.541667 -3.84375,22.53125 -2.552083,5 -6.385417,7.5 -11.5,7.5 z m 0,7.8125 c 8.177083,0 14.421875,-3.234375 18.734375,-9.703125 4.3125,-6.458333 6.46875,-15.838542 6.46875,-28.140625 0,-12.270833 -2.15625,-21.640625 -6.46875,-28.109375 -4.3125,-6.458333 -10.557292,-9.6875 -18.734375,-9.6875 -8.166667,0 -14.40625,3.229167 -18.71875,9.6875 C 8.75,14.734375 6.59375,24.104167 6.59375,36.375 c 0,12.302083 2.15625,21.682292 6.46875,28.140625 4.3125,6.46875 10.552083,9.703125 18.71875,9.703125 z"
                               style="fill:#000000;fill-opacity:1;fill-rule:nonzero;stroke:none"
                               id="path1342" /></g></g><g
                           id="g1344"
                           transform="translate(159.0332)"><g
                             id="g1346"><path
                               d="m 31.78125,66.40625 c -5.072917,0 -8.890625,-2.5 -11.453125,-7.5 C 17.776042,53.916667 16.5,46.40625 16.5,36.375 c 0,-9.989583 1.276042,-17.484375 3.828125,-22.484375 2.5625,-5 6.380208,-7.5 11.453125,-7.5 5.114583,0 8.947917,2.5 11.5,7.5 2.5625,5 3.84375,12.494792 3.84375,22.484375 0,10.03125 -1.28125,17.541667 -3.84375,22.53125 -2.552083,5 -6.385417,7.5 -11.5,7.5 z m 0,7.8125 c 8.177083,0 14.421875,-3.234375 18.734375,-9.703125 4.3125,-6.458333 6.46875,-15.838542 6.46875,-28.140625 0,-12.270833 -2.15625,-21.640625 -6.46875,-28.109375 -4.3125,-6.458333 -10.557292,-9.6875 -18.734375,-9.6875 -8.166667,0 -14.40625,3.229167 -18.71875,9.6875 C 8.75,14.734375 6.59375,24.104167 6.59375,36.375 c 0,12.302083 2.15625,21.682292 6.46875,28.140625 4.3125,6.46875 10.552083,9.703125 18.71875,9.703125 z"
                               style="fill:#000000;fill-opacity:1;fill-rule:nonzero;stroke:none"
                               id="path1348" /></g></g></g></g></g><g
                     id="g1350"><g
                       id="g1352"><g
                         id="g1354"><g
                           id="g1356"
                           transform="translate(44.845313,91.210909)"><g
                             id="g1358"><path
                               d="M 0,0 H -3.5"
                               style="fill:#000000;fill-opacity:1;fill-rule:nonzero;stroke:#000000;stroke-width:0.8;stroke-linecap:butt;stroke-linejoin:round;stroke-miterlimit:4;stroke-dasharray:none;stroke-opacity:1"
                               id="path1360" /></g></g></g></g><g
                       id="g1362"><g
                         id="g1364"
                         transform="matrix(0.1,0,0,-0.1,15.579688,95.010128)"><g
                           id="g1366"><g
                             id="g1368"><path
                               d="m 31.78125,66.40625 c -5.072917,0 -8.890625,-2.5 -11.453125,-7.5 C 17.776042,53.916667 16.5,46.40625 16.5,36.375 c 0,-9.989583 1.276042,-17.484375 3.828125,-22.484375 2.5625,-5 6.380208,-7.5 11.453125,-7.5 5.114583,0 8.947917,2.5 11.5,7.5 2.5625,5 3.84375,12.494792 3.84375,22.484375 0,10.03125 -1.28125,17.541667 -3.84375,22.53125 -2.552083,5 -6.385417,7.5 -11.5,7.5 z m 0,7.8125 c 8.177083,0 14.421875,-3.234375 18.734375,-9.703125 4.3125,-6.458333 6.46875,-15.838542 6.46875,-28.140625 0,-12.270833 -2.15625,-21.640625 -6.46875,-28.109375 -4.3125,-6.458333 -10.557292,-9.6875 -18.734375,-9.6875 -8.166667,0 -14.40625,3.229167 -18.71875,9.6875 C 8.75,14.734375 6.59375,24.104167 6.59375,36.375 c 0,12.302083 2.15625,21.682292 6.46875,28.140625 4.3125,6.46875 10.552083,9.703125 18.71875,9.703125 z"
                               style="fill:#000000;fill-opacity:1;fill-rule:nonzero;stroke:none"
                               id="path1370" /></g></g><g
                           id="g1372"
                           transform="translate(63.623047)"><g
                             id="g1374"><path
                               d="M 10.6875,12.40625 H 21 V 0 H 10.6875 Z"
                               style="fill:#000000;fill-opacity:1;fill-rule:nonzero;stroke:none"
                               id="path1376" /></g></g><g
                           id="g1378"
                           transform="translate(95.410156)"><g
                             id="g1380"><path
                               d="M 19.1875,8.296875 H 53.609375 V 0 H 7.328125 v 8.296875 c 3.739583,3.875 8.838542,9.072917 15.296875,15.59375 6.46875,6.53125 10.53125,10.744792 12.1875,12.640625 3.15625,3.541667 5.359375,6.541667 6.609375,9 1.260417,2.458333 1.890625,4.875 1.890625,7.25 0,3.875 -1.359375,7.03125 -4.078125,9.46875 -2.71875,2.447917 -6.260417,3.671875 -10.625,3.671875 -3.09375,0 -6.359375,-0.536458 -9.796875,-1.609375 -3.427083,-1.072917 -7.09375,-2.703125 -11,-4.890625 v 9.96875 c 3.96875,1.59375 7.677083,2.796875 11.125,3.609375 3.458333,0.8125 6.619792,1.21875 9.484375,1.21875 7.552083,0 13.572917,-1.890625 18.0625,-5.671875 4.489583,-3.770833 6.734375,-8.8125 6.734375,-15.125 0,-3 -0.5625,-5.84375 -1.6875,-8.53125 -1.114583,-2.677083 -3.15625,-5.838542 -6.125,-9.484375 -0.8125,-0.947917 -3.401042,-3.677083 -7.765625,-8.1875 C 33.286458,22.708333 27.135417,16.401042 19.1875,8.296875 Z"
                               style="fill:#000000;fill-opacity:1;fill-rule:nonzero;stroke:none"
                               id="path1382" /></g></g><g
                           id="g1384"
                           transform="translate(159.0332)"><g
                             id="g1386"><path
                               d="m 10.796875,72.90625 h 38.71875 v -8.3125 h -29.6875 V 46.734375 c 1.427083,0.489583 2.854167,0.854167 4.28125,1.09375 1.4375,0.239583 2.875,0.359375 4.3125,0.359375 C 36.557292,48.1875 43,45.958333 47.75,41.5 52.510417,37.041667 54.890625,31.005208 54.890625,23.390625 54.890625,15.546875 52.447917,9.447917 47.5625,5.09375 42.677083,0.75 35.791667,-1.421875 26.90625,-1.421875 c -3.0625,0 -6.182292,0.260417 -9.359375,0.78125 -3.166667,0.520833 -6.442708,1.302083 -9.828125,2.34375 V 11.625 c 2.927083,-1.59375 5.953125,-2.78125 9.078125,-3.5625 3.125,-0.78125 6.427083,-1.171875 9.90625,-1.171875 5.635417,0 10.09375,1.479167 13.375,4.4375 3.291667,2.958333 4.9375,6.979167 4.9375,12.0625 0,5.072917 -1.645833,9.088542 -4.9375,12.046875 -3.28125,2.96875 -7.739583,4.453125 -13.375,4.453125 -2.635417,0 -5.265625,-0.291667 -7.890625,-0.875 -2.614583,-0.583333 -5.286458,-1.494792 -8.015625,-2.734375 z"
                               style="fill:#000000;fill-opacity:1;fill-rule:nonzero;stroke:none"
                               id="path1388" /></g></g></g></g></g><g
                     id="g1390"><g
                       id="g1392"><g
                         id="g1394"><g
                           id="g1396"
                           transform="translate(44.845313,66.501818)"><g
                             id="g1398"><path
                               d="M 0,0 H -3.5"
                               style="fill:#000000;fill-opacity:1;fill-rule:nonzero;stroke:#000000;stroke-width:0.8;stroke-linecap:butt;stroke-linejoin:round;stroke-miterlimit:4;stroke-dasharray:none;stroke-opacity:1"
                               id="path1400" /></g></g></g></g><g
                       id="g1402"><g
                         id="g1404"
                         transform="matrix(0.1,0,0,-0.1,15.579688,70.301037)"><g
                           id="g1406"><g
                             id="g1408"><path
                               d="m 31.78125,66.40625 c -5.072917,0 -8.890625,-2.5 -11.453125,-7.5 C 17.776042,53.916667 16.5,46.40625 16.5,36.375 c 0,-9.989583 1.276042,-17.484375 3.828125,-22.484375 2.5625,-5 6.380208,-7.5 11.453125,-7.5 5.114583,0 8.947917,2.5 11.5,7.5 2.5625,5 3.84375,12.494792 3.84375,22.484375 0,10.03125 -1.28125,17.541667 -3.84375,22.53125 -2.552083,5 -6.385417,7.5 -11.5,7.5 z m 0,7.8125 c 8.177083,0 14.421875,-3.234375 18.734375,-9.703125 4.3125,-6.458333 6.46875,-15.838542 6.46875,-28.140625 0,-12.270833 -2.15625,-21.640625 -6.46875,-28.109375 -4.3125,-6.458333 -10.557292,-9.6875 -18.734375,-9.6875 -8.166667,0 -14.40625,3.229167 -18.71875,9.6875 C 8.75,14.734375 6.59375,24.104167 6.59375,36.375 c 0,12.302083 2.15625,21.682292 6.46875,28.140625 4.3125,6.46875 10.552083,9.703125 18.71875,9.703125 z"
                               style="fill:#000000;fill-opacity:1;fill-rule:nonzero;stroke:none"
                               id="path1410" /></g></g><g
                           id="g1412"
                           transform="translate(63.623047)"><g
                             id="g1414"><path
                               d="M 10.6875,12.40625 H 21 V 0 H 10.6875 Z"
                               style="fill:#000000;fill-opacity:1;fill-rule:nonzero;stroke:none"
                               id="path1416" /></g></g><g
                           id="g1418"
                           transform="translate(95.410156)"><g
                             id="g1420"><path
                               d="m 10.796875,72.90625 h 38.71875 v -8.3125 h -29.6875 V 46.734375 c 1.427083,0.489583 2.854167,0.854167 4.28125,1.09375 1.4375,0.239583 2.875,0.359375 4.3125,0.359375 C 36.557292,48.1875 43,45.958333 47.75,41.5 52.510417,37.041667 54.890625,31.005208 54.890625,23.390625 54.890625,15.546875 52.447917,9.447917 47.5625,5.09375 42.677083,0.75 35.791667,-1.421875 26.90625,-1.421875 c -3.0625,0 -6.182292,0.260417 -9.359375,0.78125 -3.166667,0.520833 -6.442708,1.302083 -9.828125,2.34375 V 11.625 c 2.927083,-1.59375 5.953125,-2.78125 9.078125,-3.5625 3.125,-0.78125 6.427083,-1.171875 9.90625,-1.171875 5.635417,0 10.09375,1.479167 13.375,4.4375 3.291667,2.958333 4.9375,6.979167 4.9375,12.0625 0,5.072917 -1.645833,9.088542 -4.9375,12.046875 -3.28125,2.96875 -7.739583,4.453125 -13.375,4.453125 -2.635417,0 -5.265625,-0.291667 -7.890625,-0.875 -2.614583,-0.583333 -5.286458,-1.494792 -8.015625,-2.734375 z"
                               style="fill:#000000;fill-opacity:1;fill-rule:nonzero;stroke:none"
                               id="path1422" /></g></g><g
                           id="g1424"
                           transform="translate(159.0332)"><g
                             id="g1426"><path
                               d="m 31.78125,66.40625 c -5.072917,0 -8.890625,-2.5 -11.453125,-7.5 C 17.776042,53.916667 16.5,46.40625 16.5,36.375 c 0,-9.989583 1.276042,-17.484375 3.828125,-22.484375 2.5625,-5 6.380208,-7.5 11.453125,-7.5 5.114583,0 8.947917,2.5 11.5,7.5 2.5625,5 3.84375,12.494792 3.84375,22.484375 0,10.03125 -1.28125,17.541667 -3.84375,22.53125 -2.552083,5 -6.385417,7.5 -11.5,7.5 z m 0,7.8125 c 8.177083,0 14.421875,-3.234375 18.734375,-9.703125 4.3125,-6.458333 6.46875,-15.838542 6.46875,-28.140625 0,-12.270833 -2.15625,-21.640625 -6.46875,-28.109375 -4.3125,-6.458333 -10.557292,-9.6875 -18.734375,-9.6875 -8.166667,0 -14.40625,3.229167 -18.71875,9.6875 C 8.75,14.734375 6.59375,24.104167 6.59375,36.375 c 0,12.302083 2.15625,21.682292 6.46875,28.140625 4.3125,6.46875 10.552083,9.703125 18.71875,9.703125 z"
                               style="fill:#000000;fill-opacity:1;fill-rule:nonzero;stroke:none"
                               id="path1428" /></g></g></g></g></g><g
                     id="g1430"><g
                       id="g1432"><g
                         id="g1434"><g
                           id="g1436"
                           transform="translate(44.845313,41.792727)"><g
                             id="g1438"><path
                               d="M 0,0 H -3.5"
                               style="fill:#000000;fill-opacity:1;fill-rule:nonzero;stroke:#000000;stroke-width:0.8;stroke-linecap:butt;stroke-linejoin:round;stroke-miterlimit:4;stroke-dasharray:none;stroke-opacity:1"
                               id="path1440" /></g></g></g></g><g
                       id="g1442"><g
                         id="g1444"
                         transform="matrix(0.1,0,0,-0.1,15.579688,45.591946)"><g
                           id="g1446"><g
                             id="g1448"><path
                               d="m 31.78125,66.40625 c -5.072917,0 -8.890625,-2.5 -11.453125,-7.5 C 17.776042,53.916667 16.5,46.40625 16.5,36.375 c 0,-9.989583 1.276042,-17.484375 3.828125,-22.484375 2.5625,-5 6.380208,-7.5 11.453125,-7.5 5.114583,0 8.947917,2.5 11.5,7.5 2.5625,5 3.84375,12.494792 3.84375,22.484375 0,10.03125 -1.28125,17.541667 -3.84375,22.53125 -2.552083,5 -6.385417,7.5 -11.5,7.5 z m 0,7.8125 c 8.177083,0 14.421875,-3.234375 18.734375,-9.703125 4.3125,-6.458333 6.46875,-15.838542 6.46875,-28.140625 0,-12.270833 -2.15625,-21.640625 -6.46875,-28.109375 -4.3125,-6.458333 -10.557292,-9.6875 -18.734375,-9.6875 -8.166667,0 -14.40625,3.229167 -18.71875,9.6875 C 8.75,14.734375 6.59375,24.104167 6.59375,36.375 c 0,12.302083 2.15625,21.682292 6.46875,28.140625 4.3125,6.46875 10.552083,9.703125 18.71875,9.703125 z"
                               style="fill:#000000;fill-opacity:1;fill-rule:nonzero;stroke:none"
                               id="path1450" /></g></g><g
                           id="g1452"
                           transform="translate(63.623047)"><g
                             id="g1454"><path
                               d="M 10.6875,12.40625 H 21 V 0 H 10.6875 Z"
                               style="fill:#000000;fill-opacity:1;fill-rule:nonzero;stroke:none"
                               id="path1456" /></g></g><g
                           id="g1458"
                           transform="translate(95.410156)"><g
                             id="g1460"><path
                               d="m 8.203125,72.90625 h 46.875 V 68.703125 L 28.609375,0 H 18.3125 L 43.21875,64.59375 H 8.203125 Z"
                               style="fill:#000000;fill-opacity:1;fill-rule:nonzero;stroke:none"
                               id="path1462" /></g></g><g
                           id="g1464"
                           transform="translate(159.0332)"><g
                             id="g1466"><path
                               d="m 10.796875,72.90625 h 38.71875 v -8.3125 h -29.6875 V 46.734375 c 1.427083,0.489583 2.854167,0.854167 4.28125,1.09375 1.4375,0.239583 2.875,0.359375 4.3125,0.359375 C 36.557292,48.1875 43,45.958333 47.75,41.5 52.510417,37.041667 54.890625,31.005208 54.890625,23.390625 54.890625,15.546875 52.447917,9.447917 47.5625,5.09375 42.677083,0.75 35.791667,-1.421875 26.90625,-1.421875 c -3.0625,0 -6.182292,0.260417 -9.359375,0.78125 -3.166667,0.520833 -6.442708,1.302083 -9.828125,2.34375 V 11.625 c 2.927083,-1.59375 5.953125,-2.78125 9.078125,-3.5625 3.125,-0.78125 6.427083,-1.171875 9.90625,-1.171875 5.635417,0 10.09375,1.479167 13.375,4.4375 3.291667,2.958333 4.9375,6.979167 4.9375,12.0625 0,5.072917 -1.645833,9.088542 -4.9375,12.046875 -3.28125,2.96875 -7.739583,4.453125 -13.375,4.453125 -2.635417,0 -5.265625,-0.291667 -7.890625,-0.875 -2.614583,-0.583333 -5.286458,-1.494792 -8.015625,-2.734375 z"
                               style="fill:#000000;fill-opacity:1;fill-rule:nonzero;stroke:none"
                               id="path1468" /></g></g></g></g></g><g
                     id="g1470"><g
                       id="g1472"><g
                         id="g1474"><g
                           id="g1476"
                           transform="translate(44.845313,17.083636)"><g
                             id="g1478"><path
                               d="M 0,0 H -3.5"
                               style="fill:#000000;fill-opacity:1;fill-rule:nonzero;stroke:#000000;stroke-width:0.8;stroke-linecap:butt;stroke-linejoin:round;stroke-miterlimit:4;stroke-dasharray:none;stroke-opacity:1"
                               id="path1480" /></g></g></g></g><g
                       id="g1482"><g
                         id="g1484"
                         transform="matrix(0.1,0,0,-0.1,15.579688,20.882855)"><g
                           id="g1486"><g
                             id="g1488"><path
                               d="m 12.40625,8.296875 h 16.109375 v 55.625 L 10.984375,60.40625 v 8.984375 l 17.4375,3.515625 H 38.28125 V 8.296875 H 54.390625 V 0 H 12.40625 Z"
                               style="fill:#000000;fill-opacity:1;fill-rule:nonzero;stroke:none"
                               id="path1490" /></g></g><g
                           id="g1492"
                           transform="translate(63.623047)"><g
                             id="g1494"><path
                               d="M 10.6875,12.40625 H 21 V 0 H 10.6875 Z"
                               style="fill:#000000;fill-opacity:1;fill-rule:nonzero;stroke:none"
                               id="path1496" /></g></g><g
                           id="g1498"
                           transform="translate(95.410156)"><g
                             id="g1500"><path
                               d="m 31.78125,66.40625 c -5.072917,0 -8.890625,-2.5 -11.453125,-7.5 C 17.776042,53.916667 16.5,46.40625 16.5,36.375 c 0,-9.989583 1.276042,-17.484375 3.828125,-22.484375 2.5625,-5 6.380208,-7.5 11.453125,-7.5 5.114583,0 8.947917,2.5 11.5,7.5 2.5625,5 3.84375,12.494792 3.84375,22.484375 0,10.03125 -1.28125,17.541667 -3.84375,22.53125 -2.552083,5 -6.385417,7.5 -11.5,7.5 z m 0,7.8125 c 8.177083,0 14.421875,-3.234375 18.734375,-9.703125 4.3125,-6.458333 6.46875,-15.838542 6.46875,-28.140625 0,-12.270833 -2.15625,-21.640625 -6.46875,-28.109375 -4.3125,-6.458333 -10.557292,-9.6875 -18.734375,-9.6875 -8.166667,0 -14.40625,3.229167 -18.71875,9.6875 C 8.75,14.734375 6.59375,24.104167 6.59375,36.375 c 0,12.302083 2.15625,21.682292 6.46875,28.140625 4.3125,6.46875 10.552083,9.703125 18.71875,9.703125 z"
                               style="fill:#000000;fill-opacity:1;fill-rule:nonzero;stroke:none"
                               id="path1502" /></g></g><g
                           id="g1504"
                           transform="translate(159.0332)"><g
                             id="g1506"><path
                               d="m 31.78125,66.40625 c -5.072917,0 -8.890625,-2.5 -11.453125,-7.5 C 17.776042,53.916667 16.5,46.40625 16.5,36.375 c 0,-9.989583 1.276042,-17.484375 3.828125,-22.484375 2.5625,-5 6.380208,-7.5 11.453125,-7.5 5.114583,0 8.947917,2.5 11.5,7.5 2.5625,5 3.84375,12.494792 3.84375,22.484375 0,10.03125 -1.28125,17.541667 -3.84375,22.53125 -2.552083,5 -6.385417,7.5 -11.5,7.5 z m 0,7.8125 c 8.177083,0 14.421875,-3.234375 18.734375,-9.703125 4.3125,-6.458333 6.46875,-15.838542 6.46875,-28.140625 0,-12.270833 -2.15625,-21.640625 -6.46875,-28.109375 -4.3125,-6.458333 -10.557292,-9.6875 -18.734375,-9.6875 -8.166667,0 -14.40625,3.229167 -18.71875,9.6875 C 8.75,14.734375 6.59375,24.104167 6.59375,36.375 c 0,12.302083 2.15625,21.682292 6.46875,28.140625 4.3125,6.46875 10.552083,9.703125 18.71875,9.703125 z"
                               style="fill:#000000;fill-opacity:1;fill-rule:nonzero;stroke:none"
                               id="path1508" /></g></g></g></g></g></g><g
                   id="g1510"><g
                     id="g1512"><g
                       id="g1514" /><g
                       id="g1532"
                       mask="url(#mask1520)"><path
                         d="m 44.845313,115.92 3.759841,-40.605034 1.948556,-18.639457 1.570227,-12.991443 1.332518,-9.27214 1.155071,-6.561902 1.00441,-4.499982 0.867141,-2.935307 0.743263,-1.792665 0.626083,-0.981899 0.525641,-0.447469 0.448636,-0.108448 0.421853,0.128071 0.451984,0.384308 0.518945,0.755153 0.605994,1.303123 0.706435,2.084172 0.813573,3.137209 0.934101,4.54166 1.064674,6.339106 1.222033,8.688121 1.416218,11.746793 1.694105,16.014346 2.206354,23.138937 6.749635,72.262067 1.714194,15.20023 1.42961,10.79811 1.232076,7.70347 1.068023,5.35458 0.927405,3.58855 0.80018,2.27145 0.679651,1.31432 0.569166,0.65987 0.478768,0.24169 0.425201,-0.0261 0.431896,-0.2583 0.485465,-0.56842 0.565817,-1.03169 0.659563,-1.69874 0.763352,-2.62078 0.877184,-3.85457 1.00441,-5.47361 1.148376,-7.55738 1.322473,-10.26074 1.553488,-13.88521 1.921771,-19.30467 2.912787,-31.81363 3.80337,-41.087779 1.94855,-18.637384 1.57023,-12.989245 1.33252,-9.269962 1.15507,-6.55982 1.00441,-4.498055 0.86714,-2.933574 0.74326,-1.791144 0.62609,-0.980599 0.52564,-0.446369 0.44863,-0.107508 0.42186,0.128956 0.45198,0.385254 0.51895,0.756232 0.60599,1.30437 0.70644,2.0856 0.81357,3.13881 0.9341,4.543421 1.06467,6.340992 1.22204,8.69009 1.41621,11.748768 1.69411,16.016212 2.20635,23.140449 6.74629,72.227965 1.71419,15.20239 1.42961,10.80031 1.23208,7.70561 1.06802,5.35657 0.92741,3.59038 0.80018,2.27307 0.67965,1.31572 0.56917,0.66106 0.47876,0.24269 0.4252,-0.0252 0.4319,-0.25739 0.48546,-0.56741 0.56582,-1.03051 0.65957,-1.69739 0.76335,-2.61926 0.87718,-3.85289 1.00441,-5.47177 1.14838,-7.55544 1.32247,-10.25876 1.55349,-13.88327 1.92177,-19.30295 2.91279,-31.81261 3.80336,-41.089424 1.94856,-18.639457 1.57023,-12.991443 1.33251,-9.27214 1.15508,-6.561902 1.00441,-4.499982 0.86714,-2.935307 0.74326,-1.792665 0.62608,-0.981899 0.52564,-0.447469 0.44864,-0.108448 0.42185,0.128071 0.45199,0.384308 0.51894,0.755153 0.606,1.303123 0.70643,2.084172 0.81357,3.137209 0.9341,4.54166 1.06468,6.339106 1.22203,8.688121 1.41622,11.746793 1.6941,16.014346 2.20636,23.138937 6.74963,72.262067 1.7142,15.20023 1.42961,10.79811 1.23207,7.70347 1.06803,5.35458 0.9274,3.58855 0.80018,2.27145 0.67965,1.31432 0.56917,0.65987 0.47877,0.24169 0.4252,-0.0261 0.43189,-0.2583 0.48547,-0.56842 0.56582,-1.03169 0.65956,-1.69874 0.76335,-2.62078 0.87718,-3.85457 1.00441,-5.47361 1.14838,-7.55738 1.32247,-10.26074 1.55349,-13.88521 1.92177,-19.30467 2.91279,-31.81363 3.80337,-41.087779 1.94855,-18.637384 1.57023,-12.989245 1.33252,-9.269962 1.15507,-6.55982 1.00441,-4.498055 0.86714,-2.933574 0.74326,-1.791144 0.62609,-0.980599 0.52564,-0.446369 0.44863,-0.107508 0.42186,0.128956 0.45198,0.385254 0.51895,0.756232 0.60599,1.30437 0.70643,2.0856 0.81358,3.13881 0.9341,4.543421 1.06467,6.340992 1.22204,8.69009 1.41621,11.748768 1.69411,16.016212 2.20635,23.140449 6.74629,72.227965 1.71419,15.20239 1.42961,10.80031 1.23208,7.70561 1.06802,5.35657 0.92741,3.59038 0.80018,2.27307 0.67965,1.31572 0.56917,0.66106 0.47876,0.24269 0.4252,-0.0252 0.4319,-0.25739 0.48546,-0.56741 0.56582,-1.03051 0.65956,-1.69739 0.76336,-2.61926 0.87718,-3.85289 1.00441,-5.47177 1.14838,-7.55544 1.32247,-10.25876 1.55349,-13.88327 1.92177,-19.30295 2.91279,-31.81261 3.80336,-41.089424 1.94856,-18.639457 1.57023,-12.991443 1.33251,-9.27214 1.15508,-6.561902 1.00441,-4.499982 0.86714,-2.935307 0.74326,-1.792665 0.62608,-0.981899 0.52564,-0.447469 0.44864,-0.108448 0.42185,0.128071 0.45199,0.384308 0.51894,0.755153 0.606,1.303123 0.70643,2.084172 0.81357,3.137209 0.9341,4.54166 1.06468,6.339106 1.22203,8.688121 1.41622,11.746793 1.6941,16.014346 2.20636,23.138937 6.74963,72.262067 1.7142,15.20023 1.42961,10.79811 1.23207,7.70347 1.06803,5.35458 0.9274,3.58855 0.80018,2.27145 0.67965,1.31432 0.56917,0.65987 0.47877,0.24169 0.4252,-0.0261 0.43189,-0.2583 0.48547,-0.56842 0.56582,-1.03169 0.65956,-1.69874 0.76335,-2.62078 0.87718,-3.85457 1.00441,-5.47361 1.14838,-7.55738 1.32247,-10.26074 1.55349,-13.88521 1.92177,-19.30467 2.91279,-31.81363 3.80337,-41.087779 1.94855,-18.637384 1.57023,-12.989245 1.33252,-9.269962 1.15507,-6.55982 1.00441,-4.498055 0.86714,-2.933574 0.74326,-1.791144 0.62609,-0.980599 0.52564,-0.446369 0.44863,-0.107508 0.42186,0.128956 0.45198,0.385254 0.51895,0.756232 0.60599,1.30437 0.70643,2.0856 0.81358,3.13881 0.9341,4.543421 1.06467,6.340992 1.22204,8.69009 1.41621,11.748768 1.69411,16.016212 2.20635,23.140449 6.74629,72.227965 1.71419,15.20239 1.42961,10.80031 1.23208,7.70561 1.06802,5.35657 0.92741,3.59038 0.80018,2.27307 0.67965,1.31572 0.56916,0.66106 0.47877,0.24269 0.4252,-0.0252 0.4319,-0.25739 0.48546,-0.56741 0.56582,-1.03051 0.65956,-1.69739 0.76336,-2.61926 0.87718,-3.85289 1.00441,-5.47177 1.14838,-7.55544 1.32247,-10.25876 1.55349,-13.88327 1.92177,-19.30295 2.91279,-31.81261 0.0435,-0.48439 v 0"
                         style="fill:none;stroke:#1f77b4;stroke-width:1.5;stroke-linecap:butt;stroke-linejoin:round;stroke-miterlimit:4;stroke-dasharray:none;stroke-opacity:1"
                         id="path1534" /></g></g></g><g
                   id="g1536"><g
                     id="g1538"><path
                       d="M 44.845313,224.64 V 7.2"
                       style="fill:none;stroke:#000000;stroke-width:0.8;stroke-linecap:butt;stroke-linejoin:round;stroke-miterlimit:4;stroke-dasharray:none;stroke-opacity:1"
                       id="path1540" /></g></g><g
                   id="g1542"><g
                     id="g1544"><path
                       d="M 379.64531,224.64 V 7.2"
                       style="fill:none;stroke:#000000;stroke-width:0.8;stroke-linecap:butt;stroke-linejoin:round;stroke-miterlimit:4;stroke-dasharray:none;stroke-opacity:1"
                       id="path1546" /></g></g><g
                   id="g1548"><g
                     id="g1550"><path
                       d="M 44.845313,224.64 H 379.64531"
                       style="fill:none;stroke:#000000;stroke-width:0.8;stroke-linecap:butt;stroke-linejoin:round;stroke-miterlimit:4;stroke-dasharray:none;stroke-opacity:1"
                       id="path1552" /></g></g><g
                   id="g1554"><g
                     id="g1556"><path
                       d="M 44.845313,7.2 H 379.64531"
                       style="fill:none;stroke:#000000;stroke-width:0.8;stroke-linecap:butt;stroke-linejoin:round;stroke-miterlimit:4;stroke-dasharray:none;stroke-opacity:1"
                       id="path1558" /></g></g></g></g></g></g></g></g><path
       style="fill:none;stroke:#d25224;stroke-width:1.50000004;stroke-linecap:butt;stroke-linejoin:miter;stroke-opacity:1;stroke-miterlimit:4;stroke-dasharray:12.0000003, 1.50000003999999998;stroke-dashoffset:1.50000004"
       d="M 103.73595,334.90539 103.79434,0.65707197"
       id="path2131" /><path
       style="fill:none;stroke:#d25224;stroke-width:1.5;stroke-linecap:butt;stroke-linejoin:miter;stroke-miterlimit:4;stroke-dasharray:12, 1.5;stroke-dashoffset:1.5;stroke-opacity:1"
       d="M 207.03818,334.90361 207.09658,0.65529744"
       id="path2131-4" /><text
       xml:space="preserve"
       style="font-style:normal;font-weight:normal;font-size:20px;line-height:1.25;font-family:sans-serif;letter-spacing:0px;word-spacing:0px;fill:#000000;fill-opacity:1;stroke:none;stroke-width:0.75"
       x="156.09787"
       y="252.97411"
       id="text2150"><tspan
         sodipodi:role="line"
         id="tspan2148"
         x="156.09787"
         y="252.97411"
         style="font-style:normal;font-variant:normal;font-weight:bold;font-stretch:normal;font-size:14px;font-family:sans-serif;-inkscape-font-specification:'sans-serif Bold';text-align:center;text-anchor:middle;stroke:#e25224;stroke-width:0.75;stroke-opacity:1">Infinitos</tspan><tspan
         sodipodi:role="line"
         x="156.09787"
         y="277.97412"
         style="font-style:normal;font-variant:normal;font-weight:bold;font-stretch:normal;font-size:14px;font-family:sans-serif;-inkscape-font-specification:'sans-serif Bold';text-align:center;text-anchor:middle;stroke:#e25224;stroke-width:0.75;stroke-opacity:1"
         id="tspan2152">pontos neste</tspan><tspan
         sodipodi:role="line"
         x="156.09787"
         y="302.97412"
         style="font-style:normal;font-variant:normal;font-weight:bold;font-stretch:normal;font-size:14px;font-family:sans-serif;-inkscape-font-specification:'sans-serif Bold';text-align:center;text-anchor:middle;stroke:#e25224;stroke-width:0.75;stroke-opacity:1"
         id="tspan2154">intervalo</tspan></text><path
       style="fill:none;stroke:#d25224;stroke-width:0.75px;stroke-linecap:butt;stroke-linejoin:miter;stroke-opacity:1;marker-start:url(#Arrow1Lstart);marker-mid:url(#Arrow1Lend)"
       d="m 104.26415,323.49885 102.12286,0.16471 v 0"
       id="path2156" /></g></svg>
